<?xml version="1.0" encoding="UTF-8" standalone="no"?>
<svg
   xmlns:dc="http://purl.org/dc/elements/1.1/"
   xmlns:cc="http://creativecommons.org/ns#"
   xmlns:rdf="http://www.w3.org/1999/02/22-rdf-syntax-ns#"
   xmlns:svg="http://www.w3.org/2000/svg"
   xmlns="http://www.w3.org/2000/svg"
   xmlns:xlink="http://www.w3.org/1999/xlink"
   xmlns:sodipodi="http://sodipodi.sourceforge.net/DTD/sodipodi-0.dtd"
   xmlns:inkscape="http://www.inkscape.org/namespaces/inkscape"
   id="Layer_1"
   xml:space="preserve"
   height="744.09448"
   viewBox="0 0 878.36 744.09452"
   width="878.35999"
   version="1.1"
   y="0px"
   x="0px"
   inkscape:version="0.48.5 r10040"
   sodipodi:docname="jackfruit-575688.svg"><metadata
   id="metadata43"><rdf:RDF><cc:Work
       rdf:about=""><dc:format>image/svg+xml</dc:format><dc:type
         rdf:resource="http://purl.org/dc/dcmitype/StillImage" /></cc:Work></rdf:RDF></metadata><defs
   id="defs41" /><sodipodi:namedview
   pagecolor="#ffffff"
   bordercolor="#666666"
   borderopacity="1"
   objecttolerance="10"
   gridtolerance="10"
   guidetolerance="10"
   inkscape:pageopacity="0"
   inkscape:pageshadow="2"
   inkscape:window-width="812"
   inkscape:window-height="719"
   id="namedview39"
   showgrid="false"
   width="1052.36px"
   inkscape:zoom="0.27718277"
   inkscape:cx="399.08068"
   inkscape:cy="440.33044"
   inkscape:window-x="0"
   inkscape:window-y="0"
   inkscape:window-maximized="0"
   inkscape:current-layer="Layer_1" />
<symbol
   id="duriaan"
   viewBox="-150.45 0 300.85 282.45"
   transform="translate(0,676.39631)">
	<g
   id="Layer_1_2_">
		<g
   clip-rule="evenodd"
   id="g5"
   style="fill-rule:evenodd">
			<path
   d="M -0.975,248.65 -4.2,266.6 3.2,277.35 4.65,255 c 2.367,2.267 4.425,4.691 6.175,7.275 L 3.85,247.325 c -1.6,0.48 -3.208,0.92 -4.825,1.32 z m 95.35,-59.1 c 4.183,1.034 8.158,2.684 11.925,4.95 L 95.6,179.851 c 0.2,0.466 0.383,0.916 0.55,1.35 -2.267,-0.934 -4.983,-2.025 -8.15,-3.275 -0.5,0.684 -0.992,1.375 -1.475,2.075 3.117,2.87 5.733,6.05 7.85,9.55 z M 91.2,195.3 80.8,187.55 c -0.2,0.267 -0.408,0.525 -0.625,0.775 l 0.8,5.125 9.425,14.65 7.35,4.91 -6.55,-17.7 z m -18.375,1.78 c -0.55,0.616 -1.108,1.241 -1.675,1.875 l 6.35,13.9 12.1,8.25 c -5.067,-6.2 -8.892,-13.051 -11.475,-20.551 l -5.05,-3.375 -0.25,-0.1 z m -13.8,14.27 3.025,6.449 13.7,12.95 c -4.2,-5 -6.15,-10.458 -5.85,-16.375 -2.267,-2.383 -4.7,-4.541 -7.3,-6.475 l -0.05,0.05 c 0.767,1.967 1.5,3.65 2.2,5.05 -0.633,-0.633 -1.992,-1.708 -4.075,-3.225 -0.55,0.51 -1.1,1.04 -1.65,1.57 z m 36.8,-45.27 c -0.617,0.983 -1.233,1.975 -1.85,2.975 l 12.825,11.34 9.25,2 c -5.566,-3.2 -9.183,-7.65 -10.85,-13.351 l -9.375,-2.97 z m 12.275,-1 10.05,4.025 -5.1,-8.65 -10.5,-1.45 3.275,4.525 c 0.76,0.52 1.51,1.04 2.28,1.56 z m 6.38,-9.83 16.17,0.75 -13.4,-9.5 h -0.9 l 1.95,2.4 -8.95,0.25 1.4,1.85 -6.35,-1.05 c -0.033,0.1 -0.075,0.191 -0.125,0.275 3.58,1.29 6.98,2.96 10.2,5.03 z m -68.38,77.3 -0.075,-0.1 0.375,2.5 -8.625,-5.925 c -0.716,0.517 -1.425,1.024 -2.125,1.524 l 2.375,12.575 c 6.684,2.95 12.525,7.242 17.525,12.875 -3.967,-7.5 -7.117,-15.32 -9.45,-23.45 z M 62.075,226.08 52.2,217.5 c -1.133,1 -2.292,1.992 -3.475,2.976 l 3.375,10.77 c 4.267,2.867 7.967,6.45 11.1,10.75 0.167,-5.4 -0.208,-10.71 -1.125,-15.92 z m -35.225,28.37 9.1,12.85 c -3.5,-8.633 -5.3,-17.566 -5.4,-26.8 1.167,0.334 2.325,0.691 3.475,1.075 -1.383,-2.35 -2.892,-4.616 -4.525,-6.8 l -1.975,1.3 c -0.35,1.45 -0.808,2.858 -1.375,4.225 l 0.7,14.15 z m -14.875,9.63 c 2.05,3.417 3.608,7.125 4.675,11.125 4.434,-7.866 5.7,-16.267 3.8,-25.2 l 0.675,-0.125 -3.1,-8.325 c -1.183,0.601 -2.367,1.176 -3.55,1.726 l -2.5,20.79 z m -23.95,-13.6 c -0.95,0.083 -1.883,0.149 -2.8,0.199 l -6.525,11.15 c 1.733,6.65 2.267,13.525 1.6,20.625 6.034,-7.9 8.667,-16.866 7.9,-26.9 l 3.6,5.226 -1.175,-6.79 c -0.217,0.334 -0.441,0.684 -0.675,1.05 l -1.925,-4.57 z m -45.925,-10.03 -8.725,13.575 1.525,11.825 8.949,-19.9 6.351,4.95 -0.226,6.825 c 0.784,-4.551 0.659,-9.142 -0.375,-13.775 l -7.499,-3.49 z m -7.3,-3.83 c -0.866,-0.483 -1.717,-0.967 -2.55,-1.45 -0.6,0.051 -1.184,0.092 -1.75,0.125 l 0.35,-0.949 c -0.1,-0.067 -0.216,-0.134 -0.35,-0.2 -2.934,3.967 -6.384,7.475 -10.35,10.524 0.466,4.983 -0.483,10.059 -2.851,15.226 l 8.601,-10.65 c -0.733,-5.533 0.966,-10.066 5.1,-13.6 l 1.825,14.2 c 0.95,-4.37 1.609,-8.77 1.975,-13.23 z m -10.85,-6.54 c -1.167,-0.75 -2.334,-1.533 -3.5,-2.35 l -4.3,1.725 0.225,-0.95 c -2.483,1.5 -5.208,2.717 -8.175,3.65 -0.8,4.5 -2.884,8.616 -6.25,12.35 -0.533,0.566 -1.084,1.117 -1.65,1.65 8.134,-1.533 13.2,-6.367 15.2,-14.5 1.833,2.934 3.142,5.892 3.925,8.875 1.683,-3.4 3.191,-6.88 4.525,-10.46 z m -18.15,-14.5 -6.05,1.65 c -1.467,7.35 -5.45,12.875 -11.95,16.574 8.566,0.634 15.15,-2.683 19.75,-9.949 l 0.75,0.649 3.025,-3.675 c -1.95,-1.71 -3.792,-3.46 -5.525,-5.24 z m -26.95,-28.35 c -6.666,4.949 -11.1,11.591 -13.3,19.925 5.434,-10.434 13.709,-14.342 24.825,-11.726 l 0.375,-0.375 c -1.134,-2.133 -2.167,-4.316 -3.1,-6.55 -2.94,-0.58 -5.88,-1 -8.81,-1.28 z m 11.15,8.59 c -4.366,2.15 -7.967,5.208 -10.8,9.175 1.3,-0.733 2.6,-1.399 3.899,-2 l 6.9,-7.18 z m -8.72,-22.57 -11.075,-2.625 c -7.2,2.084 -12.4,7.175 -15.601,15.275 l 1.301,-0.101 c 7.466,-7.133 14.899,-8.5 22.3,-4.1 2.066,-0.767 4.158,-1.467 6.274,-2.1 -0.35,-1.233 -0.683,-2.476 -1,-3.726 -2.983,-0.25 -5.058,-0.375 -6.225,-0.375 0.38,-0.37 1.72,-1.12 4.04,-2.25 z"
   id="path7"
   inkscape:connector-curvature="0"
   style="fill:#5c471b" />
			<path
   d="m -4.2,266.6 3.225,-17.95 c 0.184,-2.2 0.284,-4.434 0.3,-6.7 -0.583,-1.6 -0.925,-3.5 -1.025,-5.7 l -0.7,-8.85 -1.25,8.8 -1.5,-0.05 c 0.4,6.566 -1.008,12.517 -4.225,17.85 l 1.175,6.775 2.05,11.925 c 0.733,-2.03 1.383,-4.07 1.95,-6.1 z m 15.025,-4.32 1.15,1.8 2.5,-20.8 1.025,-8.48 2.525,6.75 3.1,8.325 5.075,13.62 c 0.366,-3 0.583,-6.017 0.65,-9.05 l -0.7,-14.15 -1.55,3.15 -8.4,-9.25 -0.95,-2.3 v 4.6 l -4.25,-4.6 -0.55,3.45 c 0,3.166 -0.667,5.866 -2,8.1 -1.333,2.267 -2.942,3.4 -4.825,3.4 l 0.225,0.475 6.975,14.96 z m 69.975,-74.73 10.4,7.75 8.2,6.101 c -1.133,-4.267 -2.808,-8.217 -5.025,-11.851 -2.117,-3.5 -4.733,-6.683 -7.85,-9.55 l -5.175,-3.85 c 0.533,-0.134 1.075,-0.267 1.625,-0.4 l -9.4,-4.225 4.975,10.48 c 0.434,1.2 0.833,2.4 1.2,3.601 l 0.2,1.324 0.85,0.63 z m 0.175,5.9 1.075,6.8 -8.975,-3.075 5.05,3.375 13.075,8.801 -0.8,-1.25 -9.425,-14.66 z M 106.8,180.4 93.975,169.05 91.25,166.625 c 0.767,1.384 1.6,2.842 2.5,4.375 -0.533,-0.133 -1.6,-0.491 -3.2,-1.075 l 0.95,1.575 c 1.6,2.967 2.917,5.642 3.95,8.025 l 15.7,4.725 -4.35,-3.84 z m -36.9,33.98 8.3,9.875 -0.7,-11.399 -6.35,-13.9 c -0.633,-0.866 -1.292,-1.691 -1.975,-2.475 -0.55,-0.483 -1.367,-1.125 -2.45,-1.926 -1.35,-0.833 -2.658,-1.733 -3.925,-2.699 l 2.9,6.35 1.8,8.65 -6.6,-3.301 c 0.567,1.534 1.1,2.959 1.6,4.275 0.033,0.017 0.067,0.042 0.1,0.075 2.6,1.93 5.033,4.09 7.3,6.48 z M 47.425,211.4 c 0.25,0.934 0.483,1.791 0.7,2.575 l 4.075,3.52 9.875,8.575 5.775,4.225 -5.8,-12.5 -3.025,-6.449 -1.9,-4.075 -4,-2.726 1.175,4.15 c 1.633,6.1 2.517,9.483 2.65,10.15 -0.767,-0.334 -3.184,-2.167 -7.25,-5.5 l -2.275,-1.95 z m 42.4,-47.22 6,1.9 9.375,2.975 12.85,4.101 c -3.133,-2.967 -6.45,-5.658 -9.95,-8.075 -0.767,-0.517 -1.525,-1.033 -2.275,-1.55 l 0.725,1.024 -9.25,-1.899 -9.925,-2.7 c 0.76,1.3 1.577,2.71 2.46,4.23 z m 24.655,-8.93 c -3.217,-2.066 -6.617,-3.741 -10.2,-5.024 l -4.375,-1.375 -5.45,-1.4 6.3,9.05 1.8,2.5 10.5,1.45 8.95,1.25 -7.53,-6.46 z m -31.155,-88.024 3.125,-3.275 -2.8,-0.9 -2.45,4.149 2.125,0.026 z M 29.5,234.776 c 1.633,2.184 3.142,4.45 4.525,6.8 l 5.825,11.275 -1.825,-9.726 -2.375,-12.58 -0.65,-3.43 -0.85,-0.575 -7.85,-9.699 2,13.05 c -0.033,1.033 -0.1,2.033 -0.2,3 0.466,0.64 0.933,1.27 1.4,1.89 z m 13.025,-20.96 1.525,5.975 1.975,12.65 0.075,0.1 8.2,8.551 -2.2,-9.851 -3.375,-10.774 -0.825,-2.601 c -1.133,-0.92 -2.925,-2.27 -5.375,-4.06 z m -62.375,24.48 -5.425,12.351 c 0.017,1.767 -0.075,3.524 -0.275,5.274 l -3.2,12.275 7.45,-6.375 6.525,-11.15 c 0.45,-1.216 0.892,-2.441 1.325,-3.675 -4.366,-3.566 -5.283,-6.467 -2.75,-8.7 0.067,-0.066 0.134,-0.166 0.2,-0.3 -0.934,-2.3 -1.167,-4.592 -0.7,-6.875 -0.033,-0.083 -0.083,-0.175 -0.15,-0.274 l -3,7.45 z m -13.3,-7.05 -6.525,14.875 0.1,1.65 0.45,6.875 0.475,7.2 c 0.433,-0.4 0.841,-0.809 1.225,-1.226 3.083,-3.25 5.525,-6.842 7.325,-10.774 0.9,-1.967 1.633,-4.009 2.2,-6.125 l -5.25,-12.47 z m -10.725,15.2 3.175,-6.975 c -0.167,-0.684 -0.366,-1.426 -0.6,-2.226 l -6.3,5.2 v -12.35 l 0.25,-2.2 -5.4,6.8 2.35,9.25 c 1.034,4.634 1.159,9.225 0.375,13.775 -0.283,1.683 -0.708,3.358 -1.274,5.024 l 1.2,-2.625 6.224,-13.67 z m -14.025,-6 0.65,-1 0.7,-8.725 c -2.834,1.916 -5.667,3.233 -8.5,3.949 -0.033,0.65 -0.084,1.301 -0.15,1.95 -0.366,4.45 -1.024,8.858 -1.975,13.226 -0.617,2.833 -1.342,5.633 -2.175,8.399 l 2.725,-4.225 8.725,-13.57 z m -16.625,-14.72 c -0.483,1.483 -0.991,2.933 -1.524,4.35 -1.334,3.583 -2.842,7.066 -4.525,10.45 l -3.225,6.024 3.95,-1.875 c 3.966,-3.05 7.416,-6.558 10.35,-10.524 0.3,-0.434 0.608,-0.858 0.925,-1.275 l 3.125,-8.125 c -4.899,3.2 -8,5.45 -9.3,6.75 0.8,-2.366 1.517,-4.541 2.15,-6.524 l -1.926,0.74 z m 19.2,-6.21 c -0.217,0.283 -0.425,0.541 -0.625,0.774 h 0.75 l -0.125,-0.77 z m -36.375,4.98 -8.899,10.75 8.8,-3.1 c 2.967,-0.934 5.691,-2.15 8.175,-3.65 l 2.875,-11.8 -2.5,3.8 2.6,-9.325 -8.024,9.65 -3.026,3.67 z m 11.6,-15.6 c -0.167,0.133 -0.334,0.267 -0.5,0.399 -0.233,0.167 -0.476,0.317 -0.726,0.45 l 1.101,-0.325 c 0.05,-0.18 0.091,-0.35 0.125,-0.52 z m -9.875,-7.35 c 0.35,-0.933 0.658,-1.791 0.925,-2.574 -1.267,0.283 -2.917,0.608 -4.95,0.975 l -2.05,0.3 c -2.467,1.434 -4.8,3.042 -7,4.825 -5.167,4.184 -9.584,9.275 -13.25,15.275 l 13.8,-4.176 11.25,-13.274 c 0.467,-0.51 0.892,-0.96 1.275,-1.36 z m -10.245,-15.55 c -2.95,-0.399 -5.125,-0.566 -6.525,-0.5 0.467,-0.133 0.95,-0.283 1.45,-0.45 -0.834,-0.033 -1.733,-0.066 -2.7,-0.1 l -10.2,-0.7 8.4,-6.05 c 0.133,-0.066 0.283,-0.134 0.45,-0.2 -2.067,0.467 -4.125,1 -6.176,1.601 -2.116,0.633 -4.208,1.333 -6.274,2.1 -3.967,1.467 -7.834,3.217 -11.601,5.25 4.101,-0.2 8.184,-0.108 12.25,0.275 2.934,0.283 5.867,0.708 8.801,1.274 2.566,0.5 5.116,1.108 7.649,1.825 l 0.7,-0.725 c 1.76,-1.67 3.01,-2.87 3.77,-3.6 z m -22.9,-29.65 c 1.384,0.267 2.767,0.55 4.15,0.85 2.183,0.5 4.358,1.059 6.524,1.675 l 9.8,-3.25 c -0.166,-0.05 -0.324,-0.116 -0.475,-0.2 l -13.925,-2.375 c -1.334,-1.833 -2.533,-3.425 -3.601,-4.774 -2.633,0.383 -5.233,0.875 -7.8,1.475 -4.166,0.967 -8.233,2.233 -12.2,3.8 v 0.95 c 5.89,0.16 11.73,0.77 17.52,1.84 z m -2.1,-23.37 c -3.317,-0.217 -6.659,-0.275 -10.025,-0.176 l 4.75,3.325 9.525,6.65 c 2.683,0.25 6.091,0.608 10.225,1.075 l 3.05,0.399 -7.1,-5.5 6.649,-0.45 -2.25,-3.274 c -2.199,-0.483 -4.416,-0.884 -6.649,-1.2 -2.71,-0.38 -5.44,-0.66 -8.18,-0.84 z m 3.42,-16.86 -6,-2.024 9.425,9.05 2.675,2.6 -1.3,-2.35 11.375,-1.775 -7.4,-2.524 -8.78,-2.98 z m 61.55,-23.22 c -0.066,-0.134 -0.134,-0.217 -0.2,-0.25 -0.734,-0.233 -0.666,-0.15 0.2,0.25 z m -69.55,77.72 11.075,2.625 c 1.283,-0.633 2.875,-1.399 4.774,-2.3 l -13.55,-4.9 5.725,-2.85 c -0.083,-0.033 -0.166,-0.066 -0.25,-0.1 -2.116,0.433 -4.166,1.017 -6.149,1.75 l -7.976,4.05 6.36,1.73 z m 7.98,-7.54 c 0.084,-0.017 0.184,-0.017 0.3,0 l 0.176,-0.1 c -0.18,0.01 -0.34,0.04 -0.48,0.1 z"
   id="path9"
   inkscape:connector-curvature="0"
   style="fill:#807652" />
			<path
   d="m -0.675,241.95 4.3,4.9 c 1.883,0 3.492,-1.134 4.825,-3.4 1.333,-2.233 2,-4.934 2,-8.1 -4.167,-3.2 -8.217,-2.9 -12.15,0.899 0.1,2.2 0.442,4.1 1.025,5.7 z m 56.225,-55.45 11.175,8.05 c 1.083,0.801 1.9,1.442 2.45,1.926 0.15,0.116 0.275,0.225 0.375,0.324 -0.1,-0.3 -0.2,-0.616 -0.3,-0.949 l 3.575,1.225 0.25,0.1 8.975,3.075 -1.075,-6.8 -0.8,-5.125 -0.225,-1.4 -0.2,-1.324 c -2.667,-0.233 -5.05,0.533 -7.15,2.3 -2.167,1.833 -3.383,4.133 -3.65,6.899 l -3.5,-10.149 -0.175,-1.101 c -0.398,-1.301 -1.406,-2.067 -3.025,-2.3 -2.025,-0.291 -4.008,0.477 -5.95,2.3 l -2.7,1.5 -0.05,0.051 2,1.38 z m 10.15,11.7 c -0.233,0.167 -1.583,-0.05 -4.05,-0.65 -1.4,-0.366 -2.191,0.051 -2.375,1.25 0.55,1.7 1.092,3.284 1.625,4.75 l 6.6,3.301 -1.8,-8.65 z m 25.8,-26.7 c -5,-1.033 -6.617,0.75 -4.85,5.351 0.067,0.199 0.15,0.416 0.25,0.649 0.367,0.134 0.733,0.275 1.1,0.425 3.167,1.25 5.883,2.342 8.15,3.275 -0.167,-0.434 -0.35,-0.884 -0.55,-1.35 -0.033,-0.101 -0.083,-0.209 -0.15,-0.325 -1.033,-2.38 -2.35,-5.05 -3.95,-8.02 z M 75.3,159.95 c -0.133,0.1 -0.267,0.184 -0.4,0.25 l -2.25,1.05 c -2.481,0.059 -3.772,0.758 -3.875,2.101 -0.102,1.342 -0.194,2.125 -0.275,2.35 0.767,0.267 1.5,0.517 2.2,0.75 l 8.55,3.9 -2.2,-5.7 c -0.5,-1.33 -1.083,-2.9 -1.75,-4.7 z m -53.9,47.4 c -0.1,0.033 -0.2,0.066 -0.3,0.1 1.2,0.8 2.633,1.884 4.3,3.25 l 10.35,9.85 -1.6,6 0.85,0.575 2.775,1.9 8.625,5.925 -0.375,-2.5 -1.975,-12.64 -6.7,-0.85 -2.65,-10.8 c -0.4,-2.434 -0.667,-4.384 -0.8,-5.851 v -0.05 c -0.037,-1.177 -1.612,-0.769 -4.725,1.226 -3.162,2.024 -4.787,3.199 -4.875,3.524 l -2.9,0.35 z m 64.05,-50.7 10.55,2.6 1.3,3.4 9.25,1.899 -0.725,-1.024 -3.27,-4.53 -1.8,-2.5 -1.35,-0.05 -7.15,-9.6 c -0.067,-0.067 -0.117,-0.142 -0.15,-0.226 -3.05,-0.541 -5.266,0.209 -6.65,2.25 -1.384,2.042 -2.101,2.967 -2.15,2.775 l -2.85,3.8 -0.2,0.3 c 1.367,0.28 3.1,0.58 5.2,0.91 z m 25.73,-24.2 c -0.283,0.866 -0.566,1.725 -0.85,2.575 l 12.95,7.875 15.325,1.2 c -5.2,-2.667 -9.883,-6.009 -14.05,-10.025 l -13.37,-1.63 z m 5.17,14.05 -7.65,-9.399 c -3.1,0.699 -5.133,1.875 -6.1,3.524 3.1,3.884 5.35,6.726 6.75,8.525 l 8.95,-0.25 -1.95,-2.39 z m 7.17,-17.62 16.925,-1.825 -11.1,-5.425 -15.45,1.025 c -0.033,0.133 -0.058,0.258 -0.075,0.375 -0.15,-0.117 -0.3,-0.233 -0.45,-0.351 l -4.325,-3.574 c -6.091,-0.561 -8.558,0.606 -7.4,3.5 1.158,2.894 1.558,4.276 1.2,4.149 l -1.35,2.351 c -0.1,0.166 -0.2,0.316 -0.3,0.449 l 7.4,-1 1.85,2.4 8.85,0.45 -2.5,-2.65 5.95,0.25 -4.975,-3.075 5.76,2.94 z m -10.12,-16.38 7.25,-2.125 c 4.833,2.25 9.367,4.992 13.6,8.226 l 4.9,0.05 -12.8,-10.351 19.25,-2 -19.1,-8.5 c 0.633,-0.3 1.283,-0.591 1.95,-0.875 -2.367,-0.017 -4.742,0.051 -7.125,0.2 l 5.98,-1.435 c -1,-1.533 -2.216,-2.85 -3.65,-3.95 -3.133,-2.434 -6.667,-4 -10.6,-4.7 -0.633,0.434 -1.183,0.917 -1.65,1.45 -3.833,4.066 -3,7.533 2.5,10.4 l 3.825,-0.925 c -0.05,0.616 -0.092,1.233 -0.125,1.85 7.133,1.316 14.017,3.592 20.65,6.825 H 119.08 l -4.575,-1.9 c -4,0.9 -4.75,3.084 -2.25,6.55 0.33,0.43 0.72,0.83 1.15,1.2 z m -7.35,-13.399 c -7.047,-0.681 -8.864,1.803 -5.45,7.449 -0.267,-0.1 -0.533,-0.199 -0.8,-0.3 -0.533,0.334 -1.05,0.65 -1.55,0.95 l -0.55,0.9 5.15,-1.101 8.375,-3.125 6.525,-3.375 -8,-0.85 -3.69,-0.549 z m -19,-6.5 c -1.486,3.671 -0.453,5.138 3.1,4.399 0.081,-0.135 0.164,-0.268 0.25,-0.399 0.114,-0.202 0.231,-0.402 0.35,-0.601 0.197,-0.332 0.397,-0.64 0.6,-0.925 1.4,-2.184 2.7,-3.876 3.9,-5.075 h -0.5 L 87,92 c 0,0.2 0.017,0.4 0.05,0.601 z m -21,-6.651 -1.55,1.1 c 0.844,5.05 1.927,7.333 3.25,6.851 1.323,-0.483 2.456,-1.899 3.4,-4.25 0.067,-0.3 0.15,-0.617 0.25,-0.95 l 0.15,-0.65 c 0.333,-1.466 0.7,-3 1.1,-4.6 l 0.6,-2.45 -2.7,1.65 c -1.633,1.233 -3.133,2.332 -4.5,3.299 z m 13.65,-16.8 0.2,-2.3 -2.6,3.35 c -3.903,6.299 -2.469,8.416 4.3,6.35 l -1.9,-7.4 z m 21.8,6.65 2.5,-3.05 2.95,-3.35 -5.9,1.8 c -6.831,1.533 -6.681,3.067 0.45,4.6 z M 80.3,60.7 89.45,60 l -0.3,0.5 c 0.033,4.5 1.542,7.45 4.525,8.851 2.117,-1.233 4.159,-1.117 6.125,0.35 0.233,0.134 0.442,0.3 0.625,0.5 0.35,-0.033 0.692,-0.066 1.025,-0.1 l 11.46,-7.801 -0.2,0.2 c 0.6,1.101 1.142,2.233 1.625,3.4 l 11.325,-2.825 -1.7,-0.025 9.95,-11.6 -13,3.025 -4.3,4.199 c -2.9,-0.75 -5.775,-1.225 -8.625,-1.425 -1.117,-0.066 -2.225,-0.1 -3.325,-0.1 L 89.47,60 94.82,44.351 c 2.9,-1.733 5.95,-3.233 9.15,-4.5 l -4.25,8.024 c 1.233,0.884 2.408,1.816 3.525,2.8 l 8.65,-5.274 c -0.517,-0.134 -1.042,-0.283 -1.575,-0.45 1.8,-7.033 5.184,-13.183 10.15,-18.45 -6.633,6.633 -14.534,11.117 -23.7,13.45 l 8.3,-19.2 c -3.167,5.233 -7.4,8.892 -12.7,10.975 l -3.85,9.65 c -3.1,1.05 -5.917,2.925 -8.45,5.625 -1.333,1.467 -2.7,2.884 -4.1,4.25 1.1,0.634 1.3,2.634 0.6,6 -0.333,1.566 0.333,2.634 2,3.2 0.467,0.099 1.05,0.183 1.75,0.249 z m 45.8,21.55 24.3,-3.85 -0.75,-0.55 c -8.267,0.767 -16.267,-0.301 -24,-3.2 l 21.2,-10.9 -0.7,-0.5 -15.725,-0.149 -12.35,11.024 c -4.417,-1.017 -8.892,-1.491 -13.425,-1.425 -2,2.866 -2.2,5.083 -0.6,6.65 1.667,1.6 4.267,2.649 7.8,3.149 l 9.45,-3.85 h 10.6 l -5.79,3.601 z m -7.95,5.101 14.9,7.975 c 3.367,-0.917 6.867,-1.325 10.5,-1.225 l -18.375,-11.426 -7.05,2.15 0.02,2.526 z M 28.3,229.901 c -4.733,-1.967 -8.5,-0.95 -11.3,3.05 -0.3,0.4 -0.566,0.816 -0.8,1.25 l 8.4,9.25 1.55,-3.15 c 0.567,-1.366 1.025,-2.774 1.375,-4.225 0.25,-1.05 0.442,-2.108 0.575,-3.175 0.1,-0.97 0.167,-1.97 0.2,-3 z m -18,-15.7 c 1.6,1.8 2.583,2.9 2.95,3.3 0.033,-0.967 0.133,-2.166 0.3,-3.6 0.167,-1.334 0.4,-2.884 0.7,-4.65 -3.433,-4.482 -5.549,-3.699 -6.35,2.351 0.467,0.5 0.9,0.966 1.3,1.399 l 1.1,1.2 z m -22.275,36.28 1.925,4.574 c 0.233,-0.366 0.458,-0.716 0.675,-1.05 3.217,-5.333 4.625,-11.283 4.225,-17.85 l -2.1,0.35 -1.5,12 L -13.5,237.58 -16,238 c -0.066,0.134 -0.133,0.233 -0.2,0.3 -2.533,2.233 -1.616,5.134 2.75,8.7 l 1.475,3.48 z m -1.575,-30.48 7.5,9.101 1.25,2.649 1.55,-10.75 c 0.715,-4.464 -1.835,-4.798 -7.65,-1 h -1.75 -0.9 z m -26.4,0.35 6.8,10.899 5.25,12.476 2.55,6.725 0.075,0.2 5.425,-12.351 c -0.433,-0.966 -0.85,-1.824 -1.25,-2.574 l -0.65,4.26 -2.5,-8.35 -1.15,-0.45 -5.8,2.7 2.1,-8.851 -7,-0.55 -1.25,-3.35 -2.6,-0.8 z m -15.375,-0.83 c 0.25,-0.283 0.492,-0.575 0.726,-0.875 l 0.699,-0.851 c 1.253,-3.491 0.87,-4.892 -1.149,-4.199 -2.02,0.691 -3.387,1.033 -4.101,1.024 l 0.2,5.825 -6.5,4.3 -3.125,8.125 -0.575,1.476 -0.35,0.949 c 0.566,-0.033 1.15,-0.074 1.75,-0.125 0.9,-0.116 1.8,-0.283 2.7,-0.5 2.833,-0.716 5.666,-2.033 8.5,-3.949 0.733,-4.017 1.3,-7.459 1.7,-10.325 -0.101,-0.033 -0.217,-0.066 -0.351,-0.101 h -0.75 c 0.201,-0.21 0.409,-0.47 0.626,-0.76 z m -19.2,6.21 1.926,-0.75 c 1.566,-4.851 2.649,-8.476 3.25,-10.875 l -6.051,-0.45 1.75,-0.65 c 5.563,-1.973 6.255,-3.864 2.075,-5.675 -4.182,-1.814 -5.84,-2.939 -4.975,-3.375 l -1.601,-2.05 c -0.166,-0.167 -0.316,-0.351 -0.449,-0.55 l -1.45,7.35 c 0,0.066 -0.017,0.134 -0.05,0.2 -0.034,0.166 -0.075,0.342 -0.125,0.524 -0.15,0.584 -0.292,1.167 -0.426,1.75 l -2.6,9.325 2.5,-3.8 -2.875,11.8 -0.225,0.95 4.3,-1.725 5.026,-1.97 z m 124.22,-12.38 c 4.066,3.333 6.483,5.166 7.25,5.5 -0.133,-0.667 -1.017,-4.051 -2.65,-10.15 -1.667,-0.6 -3.117,-0.816 -4.35,-0.65 -1.267,0.1 -1.35,1.87 -0.25,5.3 z m -91,23.9 -2.55,-8.175 c -1.433,0.45 -2.683,0.792 -3.75,1.025 v 12.35 l 6.3,-5.2 z m -17.95,-29.7 v 0.851 c 0.033,-0.233 0.1,-0.467 0.2,-0.7 -0.066,-0.03 -0.134,-0.08 -0.2,-0.15 z m -41,9.68 6.05,-1.65 c 4.533,-1.417 8.825,-3.358 12.875,-5.825 0.25,-0.133 0.492,-0.283 0.726,-0.45 l 0.024,-0.375 -14.325,6.31 4.551,-12.7 c -0.301,0.101 -0.601,0.217 -0.9,0.351 l -11.25,13.274 -1.9,2.226 c 1.37,-0.4 2.75,-0.79 4.15,-1.17 z m 4.2,-16.98 2.05,-0.3 -0.475,-2.425 -13.275,2.48 7.975,-8.875 -4.225,-1.524 -0.7,0.725 -4.55,4.725 -0.375,0.375 -0.375,0.4 -6.9,7.175 11.426,-1.425 9.42,-1.33 z m 0.25,-13.55 6.25,1.1 c 4.634,-5.1 3.233,-7.184 -4.2,-6.25 l -4.4,0.95 c -2.699,1.033 -5.083,1.884 -7.149,2.55 -0.5,0.167 -0.983,0.317 -1.45,0.45 1.4,-0.066 3.575,0.101 6.525,0.5 1.312,0.2 2.786,0.43 4.42,0.7 z m -6.85,-31.08 c 0.434,0.184 0.9,0.375 1.4,0.575 l 10.2,4.2 c 5.558,-4.178 4.391,-7.395 -3.5,-9.65 l -5.101,0.15 -10.6,2.1 7.125,2.425 c 0.14,0.09 0.3,0.16 0.47,0.2 z m -3.95,21.2 c 2.199,0.25 4.149,0.475 5.85,0.675 -0.134,-0.399 -0.25,-0.833 -0.35,-1.3 0.882,-0.882 1.416,-2.407 1.6,-4.575 0.184,-2.168 -2.066,-3.576 -6.75,-4.225 -0.3,0.133 -0.583,0.267 -0.85,0.399 l -1.65,0.75 0.125,-1.225 -13.15,-4.125 -5.725,2.85 13.55,4.9 c -1.899,0.9 -3.491,1.667 -4.774,2.3 -2.317,1.134 -3.659,1.884 -4.025,2.25 1.167,0 3.241,0.125 6.225,0.375 l 9.92,0.94 z m 150.45,-89.17 -0.45,-2.95 -3.5,2.7 -7,6.85 c -0.267,0.233 -0.5,0.467 -0.7,0.7 0.267,0.033 0.566,0.05 0.9,0.05 l 2.55,-0.2 c 4.274,3.692 6.774,4.301 7.5,1.825 0.726,-2.476 1.126,-4.084 1.2,-4.825 l -0.5,-4.15 z m -2.85,-18.799 -0.3,-0.2 -3.55,6.45 -3.9,6.899 c 0.033,-0.033 0.083,-0.066 0.15,-0.1 l 3.4,-1.55 c 4.11,1.169 6.835,1.069 8.175,-0.301 1.34,-1.369 1.215,-3.169 -0.375,-5.399 l -3.6,-5.799 z m -11.4,-19.301 c 1.533,3.067 3.6,3 6.2,-0.199 l -1.5,-11.451 -4.7,11.65 z m 20.7,-11.125 c -4.133,1.784 -7.066,5.358 -8.8,10.726 l 4.9,4.05 -9.25,9.9 -0.25,0.25 2.5,-0.45 4.4,-0.5 c 8.799,3.555 12.824,3.963 12.075,1.225 -0.749,-2.738 -1.007,-3.896 -0.775,-3.475 l -0.7,-2.45 c -0.033,-0.066 -0.066,-0.15 -0.1,-0.25 -0.733,-1.667 -1.383,-3.241 -1.95,-4.725 -0.267,-0.717 -0.517,-1.409 -0.75,-2.075 0.4,-0.566 0.783,-1.25 1.15,-2.05 l -0.35,-10.526 -2.1,0.35 z m -122.1,106.08 c 2.028,-1.575 4.012,-2.967 5.95,-4.175 1.935,-1.214 2.951,-1.705 3.05,-1.475 l 1.5,-2.4 -7.65,-1.2 -11.3,-0.75 6.75,7.9 c 0.6,0.78 1.167,1.48 1.7,2.11 z m 8.3,-38.95 -2.75,-3.55 0.2,4.9 0.8,12.7 c 0.033,-0.034 0.066,-0.067 0.1,-0.101 l 2.4,-1.649 c 3.97,-0.211 7.021,-1.794 9.15,-4.75 l 1.399,-0.601 c 0.066,-0.033 0.167,-0.083 0.3,-0.149 l -11.599,-6.8 z M -79.98,80.431 c 0.017,4.65 1.625,8.892 4.824,12.726 4.467,0 6.7,-1.117 6.7,-3.351 -0.066,-2.199 -0.066,-3.333 0,-3.399 l -5.725,-4.45 -5.625,-4.35 c -0.133,0.965 -0.19,1.908 -0.174,2.824 z m -3.15,-2.05 c 1.85,-1.45 3.775,-2.866 5.775,-4.25 l -5.3,-13.125 10.7,9.575 c 2.634,-1.684 5.283,-3.316 7.95,-4.9 -0.634,-3.883 -1.6,-7.8 -2.9,-11.75 0.2,2.017 0.117,4.092 -0.25,6.226 -0.166,0.866 -0.35,1.783 -0.55,2.75 l -18.7,-11.7 c 4.367,7.134 5.167,14.45 2.4,21.95 -7.634,-4.667 -14.333,-10.45 -20.1,-17.351 l 8.8,27.601 -20.35,-13.351 0.15,1.25 c 3.934,5.034 6.825,10.509 8.675,16.426 l 8.925,4.925 c 2.867,-3.467 6.034,-6.75 9.5,-9.851 -1.333,-2.733 -3.1,-5.316 -5.3,-7.75 v -1.8 c 3.695,1.367 7.22,3.075 10.57,5.125 z m -2.4,15.125 c -3.316,0.367 -5.175,1.325 -5.574,2.875 -0.567,2.117 1.666,5.358 6.699,9.726 2.434,2.199 3.917,2.149 4.45,-0.15 0.733,-3.4 1.15,-6.967 1.25,-10.7 l -6.825,-1.75 z m -15.425,33 c -0.033,-1.566 -0.483,-3.366 -1.35,-5.399 l -0.65,0.1 -2.675,0.425 -11.38,1.78 1.3,2.35 -2.675,-2.6 0.525,1.55 c -8.034,-5.233 -16.45,-5.75 -25.25,-1.55 7.166,1.2 13.125,4.475 17.875,9.825 2.75,0.183 5.475,0.466 8.175,0.85 0.5,-2.517 1.066,-4.991 1.7,-7.425 l 4.399,7.85 c 1.3,-0.1 2.483,-0.283 3.55,-0.55 3.134,-0.767 5.125,-2.191 5.976,-4.275 -0.983,-1.483 -1.592,-2.458 -1.825,-2.925 h 2.31 z m 11.1,-3.9 c 0.199,0.433 0.392,0.824 0.574,1.175 0.017,0.05 0.042,0.092 0.075,0.125 l 1.601,3.7 c 0.033,-0.034 0.066,-0.067 0.1,-0.101 l 1.5,-2.35 -3.85,-2.55 z m -5.375,-15.72 -10.5,-2.375 -3.275,-0.75 13.55,14.75 c 0.8,0.066 1.566,-0.416 2.3,-1.45 0.634,0.967 1.25,1.967 1.851,3 6.094,6.653 9.369,8.17 9.825,4.551 0.452,-3.626 -1.09,-6.992 -4.625,-10.101 l -5.2,-1.95 1,-4.55 -4.926,-1.12 z m -17.125,-5.8 6.25,3.225 c 1.399,-2.366 2.899,-4.658 4.5,-6.875 -1.267,-1.683 -2.592,-3.324 -3.976,-4.925 0.184,0.834 0.342,1.667 0.476,2.5 -6.7,-6 -14.317,-10.184 -22.851,-12.55 8.17,4.267 13.37,10.475 15.6,18.63 z m 0.63,6.42 c -7.717,-3.666 -15.792,-5.184 -24.226,-4.55 6.033,3.333 10.75,7.725 14.15,13.175 l 8.774,2.976 c 1.017,-2.834 2.167,-5.584 3.45,-8.25 l -2.14,-3.35 z m 32.47,9.4 c 0.167,-0.167 0.333,-0.351 0.5,-0.55 -0.634,-0.034 -1.267,-0.134 -1.9,-0.301 0.267,0.5 0.617,0.851 1.051,1.051 0.033,0.07 0.149,0 0.349,-0.2 z m 26.4,-36.25 -10.4,-8.025 -4,-3.075 1.575,6.625 1.925,8.125 c 1.866,0.867 4.267,0.367 7.2,-1.5 l 3.7,-2.15 c 1.133,-0.867 3.149,-0.934 6.05,-0.2 2.866,0.7 3.866,-1.983 3,-8.05 l -8.55,-7.925 -0.55,-0.525 c -0.233,0.533 -0.425,1.092 -0.574,1.675 l 0.624,15.025 z m 39.5,-38.9 -0.825,-10.15 c -0.45,0.833 -0.975,1.667 -1.575,2.5 -0.8,1.133 -1.767,2.166 -2.9,3.1 l -11.05,-15.6 -0.55,0.75 c 2.066,6.4 2.583,13 1.55,19.8 -5.933,-4.566 -10.734,-10.15 -14.4,-16.75 3.333,6.7 3.758,12.875 1.275,18.524 1.95,2.384 3.975,4.692 6.075,6.926 3.667,-1.667 7.367,-3.259 11.1,-4.775 -0.9,-6.05 -2.267,-12.025 -4.1,-17.925 l 10.325,15.475 c 1.683,-0.649 3.375,-1.274 5.075,-1.875 z m -43.975,20.05 c 1.483,-0.833 2.967,-1.649 4.45,-2.449 -0.417,-2.9 -1.059,-5.75 -1.925,-8.551 l -4.351,5.95 -12.399,-14.399 c 2.267,3.033 3.725,6.241 4.375,9.625 l 9.85,9.824 z m 32.125,34 c -4.8,-2.767 -7.316,-4.199 -7.55,-4.3 v 9.201 c 0.033,0 0.066,-0.017 0.1,-0.05 3.628,1.792 6.419,2.226 8.375,1.3 1.95,-0.928 2.992,-1.244 3.125,-0.95 h 5.45 c -1.7,-0.833 -3.733,-1.934 -6.1,-3.3 l -3.4,-1.9 z m -12.275,-11.9 -0.475,9.149 c 0.067,-0.033 0.15,-0.083 0.25,-0.149 l 7.15,-4.25 c -0.319,1.669 1.339,2.177 4.975,1.524 3.636,-0.651 4.878,-2.177 3.725,-4.574 l 4.85,-1.3 c 0.4,-0.066 0.816,-0.149 1.25,-0.25 l -5.35,-3.1 -11.65,-8.5 2.7,-6.1 -7.55,-9.35 v 12.65 c -0.933,0.366 -1.133,0.883 -0.6,1.55 0.267,0.3 0.717,0.616 1.35,0.95 l -0.5,9.55 -0.125,2.2 z m 5.925,20.25 c -0.634,-0.533 -1.034,-1.101 -1.2,-1.7 v 3.349 l 1.2,-1.65 z m 15.35,-41.299 -6.3,-10.9 v 13.5 c 2.9,2.966 5,2.099 6.3,-2.6 z m 17,12.549 -1.95,7.7 c 0.1,-0.067 0.216,-0.134 0.35,-0.2 l 1.6,-0.9 c 10.016,-0.072 12.216,-2.905 6.6,-8.5 0.5,0.066 1,0.134 1.5,0.2 -3.167,-7.6 -5.216,-12 -6.15,-13.2 0,0.467 -0.083,0.775 -0.25,0.925 l -0.9,8.075 -0.8,5.9 z m 14.15,-21.049 2.7,1.274 c 0.233,-0.717 0.434,-1.258 0.6,-1.625 0.2,0.367 0.441,0.908 0.725,1.625 1.383,-0.45 2.941,-2.325 4.675,-5.625 l -0.325,-8.35 -0.075,-2.25 -0.8,1.45 -7.5,13.501 z m -12.95,1.849 c 4.033,3.8 6.583,4.384 7.65,1.75 1.034,-2.733 1.633,-4.134 1.8,-4.2 l -1.35,-6.05 -1.25,-3.175 -6.85,11.675 z m 59.55,-10.4 c 2.133,5.334 5.1,6.233 8.9,2.7 l -0.45,-12.6 -8.45,9.9 z m 13.6,-9.025 c 2.3,0.684 4.583,1.45 6.85,2.3 l 6.9,-6.25 5.9,-22.725 -17.025,15.275 c -1.117,3.75 -1.992,7.55 -2.625,11.4 z M 62.12,33.556 c 1.483,0.3 2.958,0.608 4.425,0.925 1.267,-2.083 2.675,-4.075 4.225,-5.976 l 2.375,-17.45 c -1.867,6.2 -5.283,11.133 -10.25,14.8 L 62.12,33.556 z M 30.27,21.606 c 1.55,3.167 2.742,6.45 3.575,9.85 2.066,-0.1 4.117,-0.133 6.15,-0.1 0.9,-2.433 1.683,-4.892 2.35,-7.375 -6,-5.517 -9.383,-12.425 -10.15,-20.725 l -0.6,0.7 c 2.367,6.367 1.925,12.25 -1.325,17.65 z m 15.825,1.15 c 1.167,2.934 2.133,5.934 2.9,9 2.2,0.2 4.383,0.442 6.55,0.725 1.1,-1.783 2.25,-3.517 3.45,-5.2 L 55.145,1.906 c -0.6,8.233 -3.617,15.183 -9.05,20.85 z m -89.425,23.976 -3.975,4.224 -13.15,-18.85 3.95,12.275 c 4.1,3.184 7.717,6.925 10.85,11.226 1.5,-0.767 3.017,-1.517 4.55,-2.25 -0.5,-2.267 -1.242,-4.476 -2.225,-6.625 z m 33.375,15.424 c 3.233,2.934 5.583,2.217 7.05,-2.15 l -6.5,-14.05 -0.55,16.2 z m 9.925,-33.1 c -1.017,1.367 -2.175,2.7 -3.475,4 l -9.05,-17.45 c 1.533,5.4 1.142,10.442 -1.175,15.125 2.15,2.917 3.983,6 5.5,9.25 2.383,-0.817 4.775,-1.592 7.175,-2.325 0.467,-2.834 0.808,-5.7 1.025,-8.6 z m 25.425,3.025 1.1,-5.95 C 22.462,17.881 20.112,9.173 19.445,0.006 l -6.3,25.8 -7.45,-20.4 c 1,7.433 -0.134,14.117 -3.4,20.05 L 5.82,35.681 c 2.25,-0.583 4.508,-1.108 6.775,-1.574 l 2.9,-15.9 4.475,14.575 c 1.817,-0.284 3.625,-0.518 5.425,-0.701 z m 88.48,13.75 -6.925,8.5 c 0.733,0.783 1.417,1.6 2.05,2.45 l 10.75,-3.226 13.94,-12.749 -1.8,-0.8 c -5.2,4.9 -11.21,6.842 -18.02,5.825 z m -235.4,117.26 c 1.517,-0.017 4.476,-0.708 8.875,-2.075 -0.833,-0.899 -1.449,-1.383 -1.85,-1.45 l -4.25,2.125 c -0.1,-1.483 -0.175,-2.975 -0.225,-4.475 -1.384,-0.3 -2.767,-0.583 -4.15,-0.85 0.517,0.866 1.009,1.767 1.475,2.699 l -1.3,0.301 c -5.399,-1.301 -10.75,-0.917 -16.05,1.149 l -4.1,5 c 5.399,-2.5 10.375,-2.717 14.925,-0.649 1.983,-0.733 4.033,-1.317 6.149,-1.75 -0.083,-0.034 -0.158,-0.067 -0.225,-0.101 0.134,0.033 0.275,0.059 0.425,0.075 0.15,-0.05 0.309,-0.083 0.476,-0.1 l -0.18,0.1 z m 11.72,15.12 -8.4,6.05 10.2,0.7 6.15,-3.25 -7.95,-3.5 z m -20.7,-42.08 c -7.267,-0.45 -13.917,2.226 -19.95,8.025 9.033,-1.4 16.367,0.467 22,5.6 2.566,-0.6 5.167,-1.092 7.8,-1.475 1.067,1.35 2.267,2.941 3.601,4.774 5.866,-4.199 7.967,-7.267 6.3,-9.199 -4.134,-0.467 -7.542,-0.825 -10.225,-1.075 l -9.52,-6.64 z"
   id="path11"
   inkscape:connector-curvature="0"
   style="fill:#453514" />
			<path
   d="m 79.95,186.92 0.225,1.4 c 0.217,-0.25 0.425,-0.509 0.625,-0.775 l -0.85,-0.62 z m -8.8,12.03 c 0.567,-0.634 1.125,-1.259 1.675,-1.875 L 69.25,195.85 c 0.1,0.333 0.2,0.649 0.3,0.949 -0.1,-0.1 -0.225,-0.208 -0.375,-0.324 0.683,0.77 1.342,1.59 1.975,2.46 z m -8.65,8.87 c 0.033,0.05 0.05,0.092 0.05,0.125 l 0.05,-0.05 c -0.033,-0.02 -0.067,-0.05 -0.1,-0.07 z m -3.475,3.53 c 0.55,-0.534 1.1,-1.059 1.65,-1.575 -1.017,-0.717 -2.2,-1.55 -3.55,-2.5 l 1.9,4.07 z m 45.375,-61.4 c -1.3,-0.3 -2.8,-0.667 -4.5,-1.1 l 4.375,1.375 c 0.04,-0.08 0.09,-0.17 0.12,-0.27 z m 5.92,-14.93 c 0.283,-0.851 0.566,-1.709 0.85,-2.575 l -4.525,0.35 3.68,2.23 z m 3.58,-12.37 -0.525,0.024 c 0.15,0.117 0.3,0.233 0.45,0.351 0.01,-0.11 0.04,-0.24 0.07,-0.37 z m -1.05,-23.549 c 1.6,0.199 3.183,0.441 4.75,0.725 0.033,-0.616 0.075,-1.233 0.125,-1.85 l -3.82,0.924 -1.05,0.201 z M 114.32,65.9 c -0.483,-1.167 -1.025,-2.3 -1.625,-3.4 l -5.2,5.101 6.82,-1.701 z m 3.83,21.451 -0.025,-2.525 c -1.183,0.217 -2.358,0.425 -3.525,0.625 l 3.55,1.9 z m -82.5,143.2 c 0.7,-0.5 1.409,-1.008 2.125,-1.524 l -2.775,-1.9 0.65,3.42 z m -7.55,2.35 c -0.133,1.066 -0.325,2.125 -0.575,3.175 l 1.975,-1.3 c -0.467,-0.62 -0.934,-1.25 -1.4,-1.88 z m -96.675,-0.02 c -0.316,0.417 -0.625,0.842 -0.925,1.275 0.134,0.066 0.25,0.133 0.35,0.2 l 0.575,-1.48 z m 0.825,2.3 c 0.833,0.483 1.684,0.967 2.55,1.45 0.066,-0.649 0.117,-1.3 0.15,-1.95 -0.9,0.21 -1.8,0.38 -2.7,0.5 z m 10.425,-173.38 3.851,3.825 c 0.149,-0.583 0.341,-1.142 0.574,-1.675 l 0.551,0.525 c -0.101,-1.717 -0.275,-3.426 -0.525,-5.125 -1.484,0.8 -2.968,1.617 -4.451,2.45 z m 43.975,-20.05 c -1.7,0.601 -3.392,1.226 -5.075,1.875 l 5.925,8.875 -0.85,-10.75 z M 82,39.076 c -2.267,-0.85 -4.55,-1.616 -6.85,-2.3 -0.5,3.116 -0.833,6.258 -1,9.425 L 82,39.076 z m -19.875,-5.525 -1.35,13.5 0.575,-0.925 c 1.3,-4.184 3.033,-8.066 5.2,-11.649 -1.467,-0.318 -2.942,-0.626 -4.425,-0.926 z M 40,31.351 c -2.033,-0.033 -4.083,0 -6.15,0.1 0.833,3.3 1.333,6.7 1.5,10.2 1.8,-3.367 3.35,-6.799 4.65,-10.3 z m 15.55,1.125 C 53.383,32.193 51.2,31.951 49,31.751 c 0.533,2.2 0.967,4.425 1.3,6.675 l 2.1,-0.35 c 1,-1.917 2.05,-3.783 3.15,-5.6 z m -49.725,3.2 3.025,8.851 1.25,3.174 2.5,-13.6 c -2.267,0.466 -4.525,0.992 -6.775,1.575 z m 16.625,5.176 0.8,-1.45 0.075,2.25 2.075,-9.575 c -1.8,0.183 -3.608,0.417 -5.425,0.7 l 2.475,8.075 z m -47.1,5.224 c -3.733,1.517 -7.434,3.108 -11.1,4.775 3.867,4.1 8.017,7.949 12.45,11.55 -0.1,-5.5 -0.55,-10.941 -1.35,-16.325 z m -16.45,7.276 c -1.533,0.733 -3.05,1.483 -4.55,2.25 l 5.2,6.8 -0.65,-9.05 z m 32.875,-13.375 3.875,10.724 3.3,-13.05 c -2.4,0.734 -4.792,1.508 -7.175,2.326 z m 115.18,14.349 -2.3,2.825 c 1.1,0 2.208,0.033 3.325,0.1 0.35,-0.166 0.691,-0.325 1.025,-0.475 -0.63,-0.85 -1.32,-1.667 -2.05,-2.45 z m -7.25,-6.45 -3.9,7.325 7.425,-4.525 c -1.11,-0.984 -2.29,-1.916 -3.52,-2.8 z"
   id="path13"
   inkscape:connector-curvature="0"
   style="fill:#2b230c" />
			<path
   d="M 11,231.9 -2.85,220.8 c -0.133,0.067 -0.267,0.134 -0.4,0.2 l -1.55,10.75 -1.25,-2.649 c -0.467,2.733 -0.867,5.199 -1.2,7.399 l 2.1,-0.35 1.5,0.05 1.25,-8.8 0.7,8.85 c 3.934,-3.8 7.983,-4.1 12.15,-0.899 l 0.55,-3.45 z m 59.7,-65.45 2.875,5.075 9.4,4.225 3.925,1.75 c -0.1,-0.233 -0.183,-0.45 -0.25,-0.649 -1.767,-4.601 -0.15,-6.384 4.85,-5.351 l -0.95,-1.575 -13.5,-5.274 2.2,5.7 -8.55,-3.9 z m 7.85,15.55 -14.3,-4.55 1.025,6.1 0.175,1.101 3.5,10.149 c 0.267,-2.767 1.483,-5.066 3.65,-6.899 2.1,-1.767 4.483,-2.533 7.15,-2.3 -0.367,-1.2 -0.767,-2.4 -1.2,-3.6 z M 66.725,194.55 55.55,186.5 c 1.3,4.601 2.542,8.7 3.725,12.3 0.184,-1.199 0.975,-1.616 2.375,-1.25 2.467,0.601 3.817,0.817 4.05,0.65 l -2.9,-6.35 c 1.267,0.97 2.575,1.87 3.925,2.7 z m 30.575,-31.9 -1.3,-3.4 -10.55,-2.6 c 0.566,1 1.208,2.1 1.925,3.3 l 9.925,2.7 z m -2.85,-15.2 c -0.733,-0.2 -1.467,-0.4 -2.2,-0.6 l 7.15,9.6 1.35,0.05 -6.3,-9.05 z m 8.15,-6.83 c 0.967,-1.649 3,-2.825 6.1,-3.524 -3.2,-4 -5.133,-6.351 -5.8,-7.051 2.367,0.567 4.883,0.867 7.55,0.9 l -1.85,-2.4 -7.4,1 -3.55,4.45 4.95,6.62 z m 0.25,-33.62 3.95,0.95 0.8,5.625 5.8,-1.075 c -0.433,-0.366 -0.816,-0.767 -1.15,-1.2 -2.5,-3.466 -1.75,-5.649 2.25,-6.55 l -3.275,-0.875 -8.37,3.12 z m 3.2,-7.899 3.7,0.55 3.1,-0.55 1.05,-0.2 c -5.5,-2.867 -6.333,-6.334 -2.5,-10.4 0.467,-0.533 1.017,-1.017 1.65,-1.45 -0.1,-0.033 -0.208,-0.066 -0.325,-0.1 l -12.47,7.449 c 0.8,0.8 1.3,1.5 1.5,2.1 l 4.3,2.601 z m -35.4,55.249 c -0.033,0.033 -0.05,0.066 -0.05,0.1 h 0.05 v -0.1 z m 5.9,-29.1 2.95,-3.95 c -0.167,-0.033 -0.317,-0.083 -0.45,-0.149 -1,1.23 -1.833,2.6 -2.5,4.1 z m 9.6,-9.65 c 0.934,-0.434 1.917,-0.817 2.95,-1.15 l -3.35,-0.55 0.4,1.7 z m 11.55,-7.5 c -1.6,0.966 -2.784,2.5 -3.55,4.6 1.033,-0.97 2.217,-2.5 3.55,-4.6 z M 72.1,89.2 73.8,88.95 c -0.267,-0.1 -0.65,-0.25 -1.15,-0.45 -0.333,-0.133 -0.7,-0.283 -1.1,-0.45 l -0.15,0.65 0.7,0.5 z M 61.35,46.125 60.775,47.05 54.3,57.45 c 0.034,0.1 0.067,0.184 0.1,0.25 l 2.85,4.35 c 2.8,0.134 4.65,0.434 5.55,0.9 1.034,0.6 1.667,1.85 1.9,3.75 l 11.5,-9.2 -2.45,12.65 3.55,0.05 2.6,-3.35 -0.2,2.3 1.5,-1.95 2.45,-4.15 2.8,0.9 -3.125,3.275 c 1.716,0.483 3.708,1.741 5.975,3.774 1.1,-0.633 2.559,-1.184 4.375,-1.649 C 90.692,67.95 89.183,65 89.15,60.5 l 0.3,-0.5 -9.15,0.7 0.25,1.3 -2,-1.55 c -1.667,-0.566 -2.333,-1.634 -2,-3.2 0.7,-3.366 0.5,-5.366 -0.6,-6 -2.8,2.467 -6.534,7.017 -11.2,13.65 4,-7 5.9,-12.283 5.7,-15.851 v -0.55 c -3.8,3.533 -6.767,2.634 -8.9,-2.7 l -0.2,0.326 z m -9,6.601 0.4,-4.125 c -0.367,0.8 -0.75,1.483 -1.15,2.05 0.233,0.665 0.483,1.358 0.75,2.075 z m 44.45,29.125 10.65,2.074 4.4,-1.425 c -3.533,-0.5 -6.133,-1.55 -7.8,-3.149 -1.6,-1.567 -1.4,-3.784 0.6,-6.65 L 104,72.75 101.5,75.8 c 0,1 -0.517,1.851 -1.55,2.551 -1.067,0.699 -2.333,1.05 -3.8,1.05 l 0.65,2.45 z m 3.92,-11.226 0.725,-0.524 c -0.333,0.033 -0.675,0.066 -1.025,0.1 0.12,0.133 0.22,0.275 0.3,0.424 z m -58.195,143.2 C 40.408,212.275 37.8,210.384 34.7,208.15 l 2.65,10.8 6.7,0.85 -1.525,-5.97 z m -27.725,1.63 0.45,16.45 0.95,2.3 c 0.233,-0.434 0.5,-0.85 0.8,-1.25 2.8,-4 6.566,-5.017 11.3,-3.05 l -2,-13.05 7.85,9.699 1.6,-6 -10.35,-9.85 -0.65,18.05 -9.95,-13.3 1.45,-6.55 -1.75,0.05 c -0.066,0.1 -0.15,0.2 -0.25,0.3 -0.3,1.767 -0.533,3.316 -0.7,4.65 0.367,0.43 0.783,0.95 1.25,1.55 z m 38.325,-10.9 -8.525,-5.4 2.825,12.25 2.275,1.95 c -1.1,-3.434 -1.017,-5.2 0.25,-5.301 1.233,-0.166 2.683,0.051 4.35,0.65 l -1.175,-4.15 z m -69.825,26.57 c -0.466,2.283 -0.233,4.575 0.7,6.875 l 2.5,-0.425 c -1.2,-2.52 -2.267,-4.67 -3.2,-6.46 z m 22.3,-21.32 c -0.267,0.067 -0.534,0.134 -0.8,0.2 l 4.4,3 c -0.4,-0.434 -0.833,-0.899 -1.3,-1.399 -1.1,-0.2 -1.867,-0.8 -2.3,-1.8 z m -34.7,15.25 -2.1,8.851 5.8,-2.7 1.15,0.45 -3.3,-8.3 -1.55,1.7 z m 9.25,13.25 3,-7.449 c -0.9,-1.7 -1.667,-3.034 -2.3,-4 -1,3.399 -1.65,6.358 -1.95,8.875 0.4,0.76 0.817,1.61 1.25,2.58 z m 56.5,-46.3 h 0.375 c -0.091,-0.002 -0.2,-0.019 -0.325,-0.05 l -0.05,0.05 z m -56.4,2 -1.8,-0.1 c 0.167,0.533 0.283,1.066 0.35,1.6 0.467,-0.57 0.95,-1.07 1.45,-1.5 z m -12.2,-8.45 c 0.034,0.134 0.067,0.25 0.1,0.351 h 0.7 c -0.267,-0.13 -0.534,-0.25 -0.8,-0.35 z m -44.7,4.4 2.45,-5.6 -3.35,5.149 c 0.267,0.13 0.567,0.28 0.9,0.45 z m 14.75,14.65 -0.649,-2.65 c -0.134,0.033 -0.267,0.05 -0.4,0.05 l 1.049,2.6 z m 9.05,-5.6 c 0.033,0.033 0.066,0.066 0.1,0.101 0.066,-0.034 0.134,-0.067 0.2,-0.101 -0.1,0.03 -0.2,0.03 -0.3,0 z m 5.5,28.9 -0.25,2.2 c 1.066,-0.233 2.316,-0.575 3.75,-1.025 -0.533,-1.684 -1,-3.025 -1.4,-4.025 -0.634,0.86 -1.333,1.81 -2.1,2.84 z m -7.85,-7.6 c 0.134,0.034 0.25,0.067 0.351,0.101 0.1,-0.601 0.183,-1.184 0.25,-1.75 -0.233,0.3 -0.476,0.592 -0.726,0.875 l 0.125,0.78 z m -24.9,-11.4 c 0.033,-0.066 0.05,-0.134 0.05,-0.2 -0.167,0.066 -0.342,0.142 -0.525,0.225 l -0.025,0.38 c 0.166,-0.13 0.333,-0.27 0.5,-0.4 z m -11.15,-6 c 0.3,-0.134 0.6,-0.25 0.9,-0.351 0.133,-0.333 0.258,-0.666 0.375,-1 -0.383,0.4 -0.808,0.85 -1.275,1.35 z m 2.2,-3.92 0.85,-2.476 -6.274,1.025 0.474,2.43 c 2.033,-0.37 3.684,-0.69 4.95,-0.97 z m -11.17,-12.98 c -0.75,0.733 -2.009,1.934 -3.775,3.601 l 4.225,1.524 3.976,-4.425 c -1.635,-0.27 -3.109,-0.5 -4.421,-0.7 z m -0.53,-8.5 c -1.7,-0.2 -3.65,-0.425 -5.85,-0.675 -0.9,0.35 -1.817,0.741 -2.75,1.175 -0.167,0.066 -0.317,0.134 -0.45,0.2 l 7.95,3.5 -6.15,3.25 c 0.967,0.033 1.866,0.066 2.7,0.1 2.066,-0.666 4.45,-1.517 7.149,-2.55 -0.033,-0.033 -0.05,-0.066 -0.05,-0.1 l -2.549,-4.9 z m -11.9,-16.5 c 3.067,-0.967 6.817,-2.25 11.25,-3.85 l 0.15,-0.95 c -0.5,-0.2 -0.967,-0.392 -1.4,-0.575 l -9.8,3.25 -2.05,0.675 c 0.4,0.08 1.02,0.56 1.85,1.46 z m 53.3,-8.7 c -0.267,0.534 -0.483,0.967 -0.65,1.301 0.833,-0.467 1.616,-0.967 2.35,-1.5 -0.6,0.03 -1.166,0.1 -1.7,0.2 z m -17.6,6.3 c 0.5,-0.5 0.851,-1.334 1.05,-2.5 0.067,-0.2 0.134,-0.4 0.2,-0.601 0.233,-0.866 0.367,-1.717 0.4,-2.55 -0.2,0.934 -0.367,1.767 -0.5,2.5 -0.066,0.233 -0.101,0.45 -0.101,0.65 -0.299,0.8 -0.649,1.63 -1.049,2.5 z m 28.2,37.25 c 1.033,-1.2 1.75,-2.534 2.15,-4 -1.034,1.2 -1.75,2.53 -2.15,4 z m 12.5,-9.45 c -1.733,0.366 -3.35,0.883 -4.85,1.55 1.733,-0.07 3.35,-0.58 4.85,-1.55 z m 12.7,-11.05 5.2,0.6 c -1.066,-0.2 -2.066,-0.5 -3,-0.9 -0.767,0.07 -1.5,0.17 -2.2,0.3 z m -6.2,2.7 c -1.3,1.134 -2.083,2.534 -2.35,4.2 0.933,-1.33 1.717,-2.73 2.35,-4.2 z m -47.8,-62.9 c 0.7,-0.7 1.366,-1.334 2,-1.9 L -78.575,95.33 c -0.05,-0.05 -0.092,-0.075 -0.125,-0.075 -0.1,3.733 -0.517,7.3 -1.25,10.7 -0.533,2.3 -2.017,2.35 -4.45,0.15 l 6.85,9.05 z m -24.75,5.95 c 0.866,2.033 1.316,3.833 1.35,5.399 l 12.7,2.25 c 0.2,-0.366 0.417,-0.75 0.65,-1.149 l -1.601,-3.7 c -7.566,-2.03 -11.929,-2.97 -13.099,-2.8 z m 0.88,8.32 c -0.851,2.084 -2.842,3.509 -5.976,4.275 -1.066,0.267 -2.25,0.45 -3.55,0.55 l 0.55,0.775 2.25,3.274 12.551,-0.5 -5.821,-8.37 z m -9.33,14.43 c 1.667,1.933 -0.434,5 -6.3,9.199 l 13.925,2.375 -7.13,-2.42 10.6,-2.1 c 0.067,-0.167 0.15,-0.334 0.25,-0.5 -2.6,-1.934 -5.366,-3.983 -8.3,-6.15 l -3.05,-0.4 z m 20.9,-21.25 c -0.867,-0.867 -1.351,-1.717 -1.45,-2.551 -0.601,-1.033 -1.217,-2.033 -1.851,-3 -0.733,1.034 -1.5,1.517 -2.3,1.45 -2.7,0.834 -0.642,2.592 6.175,5.275 -0.182,-0.36 -0.374,-0.75 -0.574,-1.18 z m 0.6,-14.2 c -0.333,-0.101 -0.684,-0.233 -1.05,-0.4 l -1,4.55 5.2,1.95 5.449,1.55 c 0.634,0.167 1.267,0.267 1.9,0.301 0.267,-0.267 0.533,-0.542 0.8,-0.825 -5.299,-4.01 -9.066,-6.39 -11.299,-7.12 z m 66.4,7.3 c -0.733,0.333 -1.383,0.634 -1.95,0.9 0.6,-0.134 1.25,-0.317 1.95,-0.551 v -0.35 z m -12.3,-14.4 c 0.867,0.7 1.667,1.384 2.4,2.051 v -0.9 l 0.1,-1.8 c -0.034,0.033 -0.067,0.05 -0.1,0.05 l -2.4,0.6 z M -9.1,82.755 c 0.5,-0.1 0.95,-0.184 1.35,-0.25 -0.367,-0.467 -0.733,-0.967 -1.1,-1.5 -0.1,0.7 -0.183,1.283 -0.25,1.75 z m 28.35,55.1 c -0.167,0.033 -0.316,0.083 -0.45,0.149 0,0.101 0.034,0.25 0.1,0.45 0.1,-0.2 0.217,-0.4 0.35,-0.6 z m 27.55,-59.95 0.95,0.1 -1.1,-0.5 c 0.033,0.134 0.083,0.267 0.15,0.4 z m -153.9,89.9 c -0.467,-0.166 -0.976,-0.324 -1.525,-0.475 l -0.125,1.225 1.64,-0.74 z"
   id="path15"
   inkscape:connector-curvature="0"
   style="fill:#959245" />
			<path
   d="m 64.25,177.45 14.3,4.55 -4.975,-10.475 -2.875,-5.07 c -0.7,-0.233 -1.434,-0.483 -2.2,-0.75 l -6.85,-2.6 -13.35,8 1.3,2.8 -8.45,13.35 c -0.033,3.101 -1.25,4.684 -3.65,4.75 h 3.3 l -0.35,5.3 -6.55,4.1 v 0.9 c 0.133,1.467 0.4,3.417 0.8,5.851 3.1,2.233 5.708,4.125 7.825,5.675 2.45,1.783 4.242,3.134 5.375,4.05 0.667,0.517 1.117,0.892 1.35,1.125 0,-0.533 -0.375,-2.208 -1.125,-5.024 -0.217,-0.784 -0.45,-1.642 -0.7,-2.575 l -2.825,-12.25 8.525,5.399 4,2.726 c 1.35,0.95 2.533,1.783 3.55,2.5 2.083,1.517 3.442,2.592 4.075,3.225 -0.7,-1.399 -1.433,-3.083 -2.2,-5.05 0,-0.033 -0.017,-0.075 -0.05,-0.125 -0.5,-1.316 -1.033,-2.741 -1.6,-4.275 -0.533,-1.466 -1.075,-3.05 -1.625,-4.75 -1.183,-3.6 -2.425,-7.699 -3.725,-12.3 l -2,-1.399 c -2.733,1.28 -5.65,1.91 -8.75,1.91 0.4,-3.133 3.633,-6.883 9.7,-11.25 6.5,-4.133 10.267,-6.717 11.3,-7.75 h 2 v 5 c -1.466,1.4 -2.783,2.667 -3.95,3.8 0.133,0.17 0.267,0.38 0.4,0.65 z m 11.05,-17.5 c 0.667,1.8 1.25,3.366 1.75,4.7 l 13.5,5.274 c 1.6,0.584 2.667,0.942 3.2,1.075 -0.9,-1.533 -1.733,-2.991 -2.5,-4.375 -0.5,-0.85 -0.975,-1.666 -1.425,-2.45 -0.883,-1.517 -1.7,-2.925 -2.45,-4.225 -0.717,-1.2 -1.358,-2.3 -1.925,-3.3 -2.1,-0.334 -3.833,-0.634 -5.2,-0.9 -1.6,1.81 -3.25,3.21 -4.95,4.21 z m 34.05,-10.8 c -1.4,-1.8 -3.65,-4.642 -6.75,-8.525 l -4.95,-6.62 -5.75,2.45 c -0.367,0.366 -0.733,0.717 -1.1,1.05 v 2.5 l -2.4,3.851 3.7,2.774 c 0.033,0.084 0.083,0.158 0.15,0.226 0.733,0.199 1.467,0.399 2.2,0.6 l 5.45,1.4 c 1.7,0.433 3.2,0.8 4.5,1.1 l 6.35,1.05 -1.4,-1.85 z m 7,-2.65 h 0.9 l 14.65,1.65 -8.625,-5.25 -12.95,-7.875 -3.675,-2.226 4.525,-0.35 13.375,1.625 11.85,1.425 -12.875,-6.625 -5.75,-2.95 4.96,3.09 -5.95,-0.25 2.5,2.65 -8.85,-0.45 c -2.667,-0.033 -5.184,-0.333 -7.55,-0.9 0.667,0.7 2.6,3.051 5.8,7.051 l 7.65,9.4 z m -2.97,-23.82 0.525,-0.024 15.45,-1.025 8,-0.524 c -1,-0.867 -2.033,-1.7 -3.1,-2.5 -4.233,-3.233 -8.767,-5.976 -13.6,-8.226 l -7.25,2.125 -5.8,1.075 c -0.133,0.917 -0.333,1.892 -0.6,2.925 l 2.05,2.601 4.33,3.56 z M 111.85,82.5 107.45,83.925 96.8,81.851 V 90 h -1.55 c -1.2,1.199 -2.5,2.892 -3.9,5.075 2.51,-3.564 5.477,-3.79 8.9,-0.675 l 12.475,-7.45 c 0.117,0.033 0.225,0.066 0.325,0.1 3.934,0.7 7.467,2.267 10.6,4.7 1.434,1.101 2.65,2.417 3.65,3.95 l -5.975,1.425 c 2.383,-0.149 4.758,-0.217 7.125,-0.2 l 8.56,0.525 -3.95,-2.125 -14.9,-7.975 -3.55,-1.9 c 1.167,-0.2 2.342,-0.408 3.525,-0.625 l 7.05,-2.15 c 0.317,-0.149 0.625,-0.291 0.925,-0.425 l 5.8,-3.6 h -10.6 l -9.45,3.85 z m 5.75,17.325 C 116.033,99.542 114.45,99.3 112.85,99.1 l -3.1,0.55 8,0.85 -6.525,3.375 3.275,0.875 4.575,1.9 h 19.175 c -6.64,-3.24 -13.53,-5.52 -20.66,-6.835 z M 63.85,75 l 4.5,0.101 5.4,-4.95 L 76.2,57.5 64.7,66.7 63.85,75 z m 48.85,-12.5 0.2,-0.2 -11.45,7.801 -0.725,0.524 0.325,0.575 5.9,-1.8 -2.94,3.35 0.65,-0.05 c 4.533,-0.066 9.008,0.408 13.425,1.425 l 12.35,-11.024 c 0.483,-0.534 0.975,-1.067 1.475,-1.601 l -6.25,1.575 -11.33,2.825 -6.825,1.7 5.2,-5.1 z M 13.55,213.9 c -0.167,1.434 -0.267,2.633 -0.3,3.6 -0.367,-0.399 -1.35,-1.5 -2.95,-3.3 l -10.8,4.35 -2.35,2.25 13.85,11.1 4.25,4.6 v -4.6 L 14.8,215.45 c -0.467,-0.6 -0.883,-1.12 -1.25,-1.55 z m 7.55,-6.45 c -2.034,0.8 -3.65,1.283 -4.85,1.45 l -1.45,6.55 9.95,13.3 0.65,-18.05 c -1.667,-1.37 -3.1,-2.45 -4.3,-3.25 z m -37.8,23.67 c 0.934,1.783 2,3.934 3.2,6.45 l 4.75,10.925 1.5,-12 c 0.333,-2.2 0.733,-4.666 1.2,-7.399 l -7.5,-9.101 c -4.467,0.367 -8.917,0.717 -13.35,1.05 l -0.65,2.301 3.3,8.3 2.5,8.35 0.65,-4.274 c 0.3,-2.517 0.95,-5.476 1.95,-8.875 0.633,0.966 1.4,2.3 2.3,4 0.067,0.09 0.117,0.18 0.15,0.26 z m -72.85,-43.32 -6.25,-1.1 -3.976,4.425 -7.974,8.88 13.275,-2.475 6.274,-1.025 -0.85,2.476 c -0.267,0.783 -0.575,1.642 -0.925,2.574 -0.117,0.334 -0.242,0.667 -0.375,1 l -4.551,12.7 14.325,-6.325 c 0.184,-0.083 0.358,-0.158 0.525,-0.225 l 1.45,-7.35 c -1.967,-2.367 -2.784,-5.067 -2.45,-8.101 0.033,-0.366 0.1,-0.75 0.2,-1.149 -2.301,0 -4.25,-0.4 -5.851,-1.2 -1.633,-0.8 -2.45,-1.767 -2.45,-2.9 -0.13,-0.07 -0.264,-0.13 -0.397,-0.2 z m 20.2,26.3 c -0.601,2.399 -1.684,6.024 -3.25,10.875 -0.634,1.983 -1.351,4.158 -2.15,6.524 1.3,-1.3 4.4,-3.55 9.3,-6.75 l 6.5,-4.3 -0.2,-5.825 -0.1,-6.225 v -0.851 c -1.134,-1.033 -2.017,-2.017 -2.65,-2.949 l 1.7,10.4 h -2 l -3.35,-3.149 -3.8,2.25 z m 12.1,25.35 4.5,-4.75 5.4,-6.8 c 0.767,-1.033 1.466,-1.983 2.1,-2.851 0.4,1 0.867,2.342 1.4,4.025 l 2.55,8.175 c 0.233,0.8 0.433,1.542 0.6,2.226 l 1.025,6.649 6.525,-14.875 -6.8,-10.899 c -2.267,0 -4.2,-0.534 -5.8,-1.601 -1.6,-1.033 -2.4,-2.283 -2.4,-3.75 l -1.05,-0.45 c 0,0.9 -0.45,1.667 -1.35,2.301 -0.934,0.633 -2.05,0.949 -3.351,0.949 l -0.699,0.851 c -0.067,0.566 -0.15,1.149 -0.25,1.75 -0.4,2.866 -0.967,6.309 -1.7,10.325 l -0.7,8.71 z M -112.65,161 c -4.399,1.367 -7.358,2.059 -8.875,2.075 -0.116,-0.017 -0.216,-0.017 -0.3,0 -0.149,-0.017 -0.291,-0.042 -0.425,-0.075 0.066,0.033 0.142,0.066 0.225,0.101 0.084,0.033 0.167,0.066 0.25,0.1 l 13.15,4.125 c 0.55,0.15 1.059,0.309 1.525,0.475 0.267,-0.133 0.55,-0.267 0.85,-0.399 l 4.1,-4.15 c 0.101,-2.033 0.351,-4.066 0.75,-6.1 -4.43,1.6 -8.18,2.88 -11.25,3.85 z m 130.3,-105.38 -5,22.375 c 0.1,0.334 0.184,0.667 0.25,1 h 0.7 c 0.5,0.066 0.917,0.233 1.25,0.5 7.966,6.167 5.683,11.5 -6.85,16 l 4,4.7 9.2,-0.2 c 1.233,-1.566 2.667,-2.783 4.3,-3.649 1.4,-0.767 3.05,-1.351 4.95,-1.75 L 22.8,87.995 29.75,83.846 18.975,55.62 c -0.284,-0.717 -0.525,-1.258 -0.725,-1.625 -0.167,0.367 -0.367,0.908 -0.6,1.625 z M 0.8,75.395 l -7.55,-10.4 -2.1,16 -14,-15.5 c 0.1,-0.033 0.217,-0.05 0.35,-0.05 v -13.5 l 6.3,10.9 6.25,10.95 v -11.65 l 0.55,-16.2 6.5,14.05 4.5,9.5 L 2.5,61.42 2,56.195 8.85,44.52 5.825,35.669 2.3,25.445 l -1.25,-3.65 -0.9,0.9 c 0,2.133 -0.058,4.25 -0.175,6.35 -0.217,2.9 -0.559,5.766 -1.025,8.6 l -3.3,13.05 -3.875,-10.725 c -1.517,-3.25 -3.35,-6.333 -5.5,-9.25 -0.183,-0.25 -0.375,-0.508 -0.575,-0.775 l 0.125,1.65 0.825,10.15 0.85,10.75 -5.925,-8.875 -10.325,-15.475 c 1.833,5.899 3.2,11.875 4.1,17.925 0.8,5.384 1.25,10.825 1.35,16.325 -4.434,-3.601 -8.583,-7.45 -12.45,-11.55 -2.1,-2.233 -4.125,-4.542 -6.075,-6.926 L -45,39.846 l 1.675,6.875 c 0.983,2.149 1.725,4.358 2.225,6.625 l 0.65,9.05 -5.2,-6.8 C -48.783,51.295 -52.4,47.554 -56.5,44.37 l -0.9,-0.675 2.601,7.1 c 0.866,2.801 1.508,5.65 1.925,8.551 0.25,1.699 0.425,3.408 0.525,5.125 l 8.55,7.925 c 1.433,1.533 3.542,5.366 6.325,11.5 l 0.125,-2.2 c -1.1,-4.8 -1.383,-8.3 -0.85,-10.5 -0.533,-0.667 -0.333,-1.184 0.6,-1.55 V 56.995 l 7.55,9.351 c 1.366,-0.067 4.066,3.116 8.1,9.55 -3.1,-5.8 -3.642,-9.191 -1.625,-10.175 l 2.474,15.224 5.35,3.1 6.65,-1.3 c 0.067,-0.467 0.15,-1.05 0.25,-1.75 0.367,0.533 0.733,1.033 1.1,1.5 1.467,-0.267 2.316,-0.434 2.55,-0.5 -0.267,1.066 -0.583,2.066 -0.95,3 0.333,0.7 0.583,1.316 0.75,1.851 1.066,-1.4 2.483,-2.65 4.25,-3.75 L 0.8,75.395 z m 40.7,-26.25 c 1.733,-5.367 4.667,-8.941 8.8,-10.726 -0.333,-2.25 -0.767,-4.475 -1.3,-6.675 -0.767,-3.066 -1.733,-6.066 -2.9,-9 -0.7,-1.733 -1.467,-3.45 -2.3,-5.15 -0.4,2.133 -0.883,4.258 -1.45,6.375 -0.667,2.483 -1.45,4.942 -2.35,7.375 -1.3,3.5 -2.85,6.933 -4.65,10.3 -0.167,-3.5 -0.667,-6.9 -1.5,-10.2 -0.833,-3.4 -2.025,-6.683 -3.575,-9.85 -0.65,-1.367 -1.375,-2.717 -2.175,-4.05 l -1.6,8.575 -1.1,5.95 -2.075,9.575 0.325,8.351 2.2,20.75 c 0.1,-0.733 0.341,-1.434 0.725,-2.1 l 3.025,-19.1 4.7,-11.65 1.5,11.45 v 14.25 c 0.367,-0.101 0.733,-0.184 1.1,-0.25 l 0.25,-0.25 4.35,-13.95 z m -129.05,99.6 c 0.434,-0.6 0.85,-1.217 1.25,-1.85 4.033,-6.566 7.983,-7.316 11.85,-2.25 0.267,-0.733 0.584,-1.483 0.95,-2.25 l -6.75,-7.9 11.3,0.75 c 1.434,-1.8 2.834,-3.217 4.2,-4.25 l -6.3,-0.7 v -0.199 c -0.2,-4.534 1.733,-8.034 5.8,-10.5 l -0.8,-12.7 c -4.2,-4.066 -7.367,-7.142 -9.5,-9.226 1.6,1.317 3.8,3.159 6.6,5.525 -5.866,-5.434 -7.934,-8.783 -6.2,-10.05 -3.199,-3.834 -4.808,-8.075 -4.824,-12.726 -1.051,-0.716 -2.101,-1.399 -3.15,-2.05 -3.35,-2.05 -6.875,-3.758 -10.575,-5.125 v 1.8 c 2.2,2.434 3.967,5.017 5.3,7.75 1.634,3.334 2.592,6.9 2.875,10.7 l 6.825,1.75 c 0.033,0 0.075,0.025 0.125,0.075 l 3.025,17.925 7.55,-4.45 c 0.3,13.5 -7.1,24.233 -22.2,32.2 l 1.95,-12.25 -12.7,-2.25 h -2.3 c 0.233,0.467 0.842,1.441 1.825,2.925 l 5.825,8.375 -12.551,0.5 -6.649,0.45 7.1,5.5 c 2.934,2.167 5.7,4.217 8.3,6.15 l 3.801,-0.101 8.049,-1.55 z m -15.4,-27.55 0.65,-0.1 c 1.166,-0.167 5.533,0.767 13.1,2.8 -0.033,-0.033 -0.059,-0.075 -0.075,-0.125 -6.816,-2.684 -8.875,-4.441 -6.175,-5.275 l -13.55,-14.75 3.275,0.75 -0.375,-0.2 -6.25,-3.225 -5.25,-2.725 5.875,9.149 2.149,3.351 6.62,10.35 z m -3.87,-33.474 -4.93,-2.726 6.175,7.5 c 1.384,1.601 2.709,3.242 3.976,4.925 2.3,3.017 4.425,6.167 6.375,9.45 l 4.925,1.12 c 0.366,0.167 0.717,0.3 1.05,0.4 -0.167,-0.334 1.45,-1.101 4.85,-2.3 -5.033,-4.367 -7.267,-7.608 -6.699,-9.726 l -6.801,-3.724 -8.92,-4.924 z m 70.67,27.624 3.4,-9.551 v -2.449 c -0.733,-0.667 -1.533,-1.351 -2.4,-2.051 -2.833,1.301 -5.184,0.867 -7.05,-1.3 l 1,-3.1 -13.05,-8.9 0.65,12 -9.45,-8.399 c -1.867,-3.934 -2.101,-6.367 -0.7,-7.301 l -1.925,-8.125 -6.275,-5.6 -10.7,-9.575 5.301,13.125 3.175,7.825 5.725,4.45 c 0.233,0.2 1.134,1.35 2.7,3.45 l 2.25,15.699 11.6,6.801 11.75,-4.2 c 0.033,0.133 0.066,0.25 0.1,0.35 1.233,2.7 1.183,5.434 -0.15,8.2 l 4.049,-1.35 z m -27.1,-42.725 10.4,8.025 -0.625,-15.025 -3.851,-3.825 -9.85,-9.824 0.274,1.949 c 1.301,3.95 2.267,7.867 2.9,11.75 0.368,2.317 0.618,4.634 0.752,6.95 z M 22.45,40.846 19.975,32.771 15.5,18.195 l -2.9,15.9 -2.5,13.6 1.35,6.05 c 0.133,0.634 0.984,6.05 2.55,16.25 -1.033,-10.399 -0.717,-15.616 0.95,-15.649 l 7.5,-13.5 z m 29.9,11.875 c 0.566,1.483 1.217,3.058 1.95,4.725 l 6.475,-10.4 1.35,-13.5 0.775,-7.7 0.4,-4.05 c -1.5,1.767 -2.933,3.592 -4.3,5.475 -1.2,1.683 -2.35,3.417 -3.45,5.2 -1.1,1.817 -2.15,3.683 -3.15,5.6 l 0.35,10.525 -0.4,4.125 z m 9,-6.601 0.2,-0.325 8.45,-9.9 0.45,12.6 v 0.55 c 0.2,3.567 -1.7,8.851 -5.7,15.851 4.667,-6.634 8.4,-11.184 11.2,-13.65 1.4,-1.366 2.767,-2.783 4.1,-4.25 2.534,-2.7 5.35,-4.575 8.45,-5.625 l 3.85,-9.65 1.25,-3.175 -4.7,4.275 -6.9,6.25 -7.85,7.124 c 0.167,-3.167 0.5,-6.309 1,-9.425 0.633,-3.85 1.508,-7.65 2.625,-11.4 0.517,-1.816 1.108,-3.608 1.775,-5.375 -3.333,2.567 -6.258,5.4 -8.775,8.5 -1.55,1.9 -2.958,3.892 -4.225,5.976 -2.167,3.583 -3.9,7.465 -5.2,11.649 z m 58.4,7.425 L 109,56.77 c -0.333,0.149 -0.675,0.309 -1.025,0.475 2.85,0.2 5.725,0.675 8.625,1.425 l 4.3,-4.199 1.1,-1.076 c -0.77,0.034 -1.52,0.083 -2.25,0.15 z m -7.87,-8.15 -8.65,5.274 -7.43,4.526 3.9,-7.325 4.25,-8.024 c -3.2,1.267 -6.25,2.767 -9.15,4.5 l -5.35,15.649 15.2,-2.85 2.3,-2.825 6.925,-8.5 2.625,-3.225 -4.62,2.8 z"
   id="path17"
   inkscape:connector-curvature="0"
   style="fill:#645428" />
			<path
   d="m 53.6,185.05 -1.95,-2.149 c 0.033,-0.167 0.1,-0.316 0.2,-0.45 3.4,-4.4 7.4,-6.283 12,-5.65 1.167,-1.133 2.483,-2.399 3.95,-3.8 v -5 h -2 c -1.033,1.033 -4.8,3.617 -11.3,7.75 -6.067,4.367 -9.3,8.117 -9.7,11.25 3.1,0 6.017,-0.633 8.75,-1.899 l 0.05,-0.05 z M 77.6,142 c -14.867,4.667 -24.65,14.017 -29.35,28.05 -0.1,0.334 -0.083,0.684 0.05,1.051 l 13.35,-8 -3.65,-2.15 c 1.967,-4 5.317,-6.4 10.05,-7.2 0.867,-0.033 1.717,0.2 2.55,0.7 0,-0.033 0.017,-0.066 0.05,-0.1 l 6.95,-12.35 z M 41.15,187.25 49.6,173.9 c -1.533,-0.467 -3.184,-0.9 -4.95,-1.3 l -5.9,-0.4 -16.05,12.15 c -0.934,-2.834 -2.534,-5.167 -4.8,-7 -4.867,-3.867 -10.533,-5.567 -17,-5.101 -0.367,0.634 -0.683,1.3 -0.95,2 -3.2,8.267 -0.884,14.983 6.95,20.15 l -2.5,1.85 0.4,1.25 -7,8.3 v 2.2 c 2.4,0 4.733,0.667 7,2 h -7 v -2 l -6.825,2.025 -5.075,-0.075 c -0.867,-1 -0.983,-1.983 -0.35,-2.95 4.767,-7.066 7.333,-6.524 7.7,1.625 l 4.55,-2.825 v -1.8 l 6.6,-7.75 c -1.066,-1.5 -4.25,-2.483 -9.55,-2.95 -1.4,-0.133 -3.85,-0.25 -7.35,-0.35 -2.167,0.667 -4.583,1.017 -7.25,1.05 0.467,-0.434 0.95,-0.833 1.45,-1.2 2.167,0.067 4.1,0.117 5.8,0.15 9.7,-3.8 11.483,-9.566 5.35,-17.3 -0.4,-0.467 -0.817,-0.917 -1.25,-1.351 11.466,-10.267 10.85,-17.466 -1.85,-21.6 -3.066,-1 -6.184,-0.95 -9.35,0.15 -6.033,1.966 -9.566,5.833 -10.6,11.6 3.6,1.733 5.9,4.967 6.9,9.7 -1,-0.533 -1.95,-1.167 -2.85,-1.9 -2.567,-2.2 -3.917,-4.8 -4.05,-7.8 -15.366,-3.066 -21.983,3.3 -19.85,19.1 -13.434,-11.366 -21.05,-8.399 -22.851,8.9 l -3.75,-2.5 c -0.333,-0.167 -0.633,-0.316 -0.899,-0.45 l 3.35,-5.149 v -14.35 l -5.45,0.25 -4.25,4.95 2.95,0.4 c 2.233,4.767 1.517,8.933 -2.149,12.5 l -6.051,-0.1 c 0,1.134 0.817,2.101 2.45,2.9 1.601,0.8 3.55,1.2 5.851,1.2 -0.101,0.399 -0.167,0.783 -0.2,1.149 -0.334,3.033 0.483,5.733 2.45,8.101 0.133,0.199 0.283,0.383 0.449,0.55 l 1.801,-4.9 c 0.666,0.3 1.316,0.617 1.949,0.95 5.567,3.066 8.517,7.7 8.851,13.9 l 3.349,3.15 h 2 L -61.9,204.6 c 0.634,0.933 1.517,1.916 2.65,2.949 0.066,0.067 0.134,0.117 0.2,0.15 0.066,-0.167 0.166,-0.233 0.3,-0.2 6.9,-2.133 10.083,0.217 9.55,7.05 l 1.05,0.45 c 0,1.467 0.801,2.717 2.4,3.75 1.6,1.066 3.533,1.601 5.8,1.601 l 2.6,0.8 1.25,3.35 7,0.55 1.55,-1.699 0.65,-2.301 c 4.433,-0.333 8.883,-0.683 13.35,-1.05 h 0.9 l -3.05,-3.6 c 5.2,-3.8 10.467,-4.783 15.8,-2.95 l -0.6,5.1 10.8,-4.35 -1.1,-1.2 -4.4,-3 c 0.267,-0.066 0.534,-0.133 0.8,-0.2 L 5.3,208.75 2.4,206.3 c 2.867,-4.5 6.95,-6.449 12.25,-5.85 l 0.05,4.35 8,-5.699 -7.6,6.8 -0.6,3.05 1.75,-0.05 c 1.2,-0.167 2.816,-0.65 4.85,-1.45 0.1,-0.033 0.2,-0.066 0.3,-0.1 l -1.25,-1.601 c 3.4,-4.166 7.733,-7.083 13,-8.75 l 0.75,4.4 6.55,-4.101 0.35,-5.3 h -4.15 c -4.333,4 -8.283,6 -11.85,6 -0.133,0 -0.267,-0.017 -0.4,-0.05 4.534,-3.134 7.667,-5.116 9.4,-5.95 h 2.85 l 0.05,-0.05 c -7.5,-5.667 -6.784,-8.233 2.15,-7.7 1.533,0.27 2.3,1.27 2.3,3 z m -18.45,11.85 -6.3,-3.9 4.4,-5.35 c 0.034,1.8 0.367,3.5 1,5.1 0.7,1.767 1.567,2.767 2.6,3 -0.567,0.37 -1.133,0.75 -1.7,1.15 z M 71.55,90.2 c 0.133,-0.366 0.317,-0.7 0.55,-1 l -0.7,-0.5 c -0.1,0.333 -0.183,0.65 -0.25,0.95 l 0.4,0.55 z M 10.65,193 c -0.533,-0.2 -1.033,-0.5 -1.5,-0.899 -1,-0.9 -1.5,-1.967 -1.5,-3.2 0,-0.066 0.05,-0.834 0.15,-2.3 0.467,-1.4 1.75,-2.101 3.85,-2.101 1.733,0 3.15,0.65 4.25,1.95 0.833,1 1.25,1.934 1.25,2.8 0,3.134 -1.583,4.533 -4.75,4.2 -0.633,-0.07 -1.216,-0.22 -1.75,-0.45 z m 27.8,-21 c -1.9,-1.399 -2.65,-3.217 -2.25,-5.45 0.066,-0.3 0.1,-0.616 0.1,-0.949 2.7,-2.733 5.7,-2.9 9,-0.5 l 4.25,-4.851 -0.3,-5.3 c -13.833,-2.866 -23.3,3.35 -28.4,18.65 l 5.35,4.199 12.25,-5.8 z m -69.6,13.9 c 1.167,0.5 2.517,1.233 4.05,2.2 2.967,1.833 4.817,3.767 5.55,5.8 l 1.8,0.1 c -0.5,0.434 -0.983,0.934 -1.45,1.5 -0.066,-0.533 -0.183,-1.066 -0.35,-1.6 -2.367,-0.267 -4.583,-1.233 -6.65,-2.9 -1.9,-1.5 -3.116,-3.2 -3.65,-5.1 -1.566,0.066 -3.033,0.233 -4.4,0.5 l 4.15,-4.15 0.15,3.3 c 0.266,0.1 0.533,0.22 0.8,0.35 z m 18.3,2.35 c 0,1.2 -0.267,2.117 -0.8,2.75 -0.733,0.9 -1.967,1.3 -3.7,1.2 -0.167,0 -0.333,-0.017 -0.5,-0.05 -3.333,-0.367 -5,-1.783 -5,-4.25 -0.1,-0.8 0.034,-1.566 0.4,-2.3 0.7,-1.4 2.233,-2.101 4.6,-2.101 1.767,0 3.1,0.584 4,1.75 0.666,0.87 1,1.87 1,3 z m -1.25,-17.3 c -1.133,0.1 -2.1,-0.134 -2.9,-0.7 -0.9,-0.666 -1.35,-1.583 -1.35,-2.75 0,-0.066 0.217,-1 0.65,-2.8 0.767,-1.8 2.05,-2.7 3.85,-2.7 2.667,0 4,1.334 4,4 0,2.667 -1.133,4.267 -3.4,4.8 -0.267,0.07 -0.55,0.12 -0.85,0.15 z m -63.45,18.55 c -1.101,1.167 -2.2,2.033 -3.3,2.601 0,-0.733 0.333,-1.351 1,-1.851 0.633,-0.5 1.4,-0.75 2.3,-0.75 z m 24.8,9.6 c -1.967,1.133 -4.167,1.75 -6.6,1.85 -0.9,0.6 -1.967,0.934 -3.2,1 l 0.649,2.65 -1.049,-2.6 c -0.533,-0.566 -1.116,-1.2 -1.75,-1.899 l 5.351,0.85 6.5,-1.95 c 0.1,0.033 0.199,0.033 0.3,0 l 3.8,-3.149 c -0.7,6.066 2.35,9.767 9.15,11.1 0.534,0.167 1.067,0.316 1.6,0.45 l -4.95,2.2 -9.801,-10.5 z m 69.4,-28.9 c 11,-7.1 9.917,-12.5 -3.25,-16.2 -2.4,-0.733 -4.35,-0.399 -5.85,1 -8.8,7.967 -7.517,13.283 3.85,15.95 -4.2,-8.333 -2.35,-9.65 5.55,-3.95 1.1,0.8 1,1.87 -0.3,3.2 z m -84.45,22.85 c -1.033,-1.166 -1.55,-2.383 -1.55,-3.649 0,-0.834 0.25,-1.65 0.75,-2.45 0.8,-1.3 2.05,-1.95 3.75,-1.95 2,0 3.5,0.9 4.5,2.7 0.666,1.167 1,2.267 1,3.3 0,3.867 -1.667,5.3 -5,4.3 -1.3,-0.43 -2.45,-1.18 -3.45,-2.25 z m -32.95,-15.55 2.55,4.9 9.851,-5.4 0.05,-4.649 -0.9,0.35 -1.7,-12.2 c -0.066,0 -0.116,-0.033 -0.149,-0.1 l -10.2,-4.2 -0.15,0.95 c -0.399,2.033 -0.649,4.066 -0.75,6.1 1.233,-0.866 2.267,-0.866 3.101,0 7.133,7.733 6.45,12.05 -2.05,12.95 0.1,0.47 0.22,0.9 0.35,1.3 z m 37.65,-8.55 c -2.834,0.366 -4.25,-1.033 -4.25,-4.2 0,-1.066 0.116,-1.899 0.35,-2.5 0.6,-1.5 1.816,-2.25 3.65,-2.25 1.333,0 2.466,0.65 3.399,1.95 0.733,1.033 1.101,1.967 1.101,2.8 0,1.101 -0.45,2.066 -1.351,2.9 -0.799,0.73 -1.766,1.17 -2.899,1.3 z m 3.1,-15.35 -7.25,2.4 c -2.967,3.667 -4.267,7.917 -3.9,12.75 0.034,0.134 0.084,0.25 0.15,0.351 11.7,8.8 19.634,5.716 23.8,-9.25 l -3.85,-7.101 -6.601,-0.649 c -0.733,0.53 -1.516,1.03 -2.349,1.5 z m 27.9,49.1 c -1.066,1.2 -2.4,1.8 -4,1.8 -1.7,0 -2.883,-0.434 -3.55,-1.3 -0.467,-0.634 -0.7,-1.566 -0.7,-2.8 0,-0.066 0.05,-0.834 0.15,-2.3 0.534,-1.4 1.983,-2.101 4.35,-2.101 1.667,0 2.967,0.483 3.9,1.45 0.733,0.767 1.1,1.65 1.1,2.65 0,0.77 -0.417,1.63 -1.25,2.6 z m 10.9,-7.2 c -0.133,2.834 -1.133,5.334 -3,7.5 -0.533,0.634 -1.066,1.267 -1.6,1.9 l -0.4,-1.9 5,-7.5 z m -21.75,14.1 c 1.267,2.033 1.85,3.833 1.75,5.399 h -6.95 c 0.233,-1.9 1.966,-3.7 5.2,-5.4 z m -5.8,-13.75 c 0.4,-1.467 1.116,-2.801 2.15,-4 -0.4,1.47 -1.117,2.8 -2.15,4 z m 12.5,-9.45 c -1.5,0.967 -3.117,1.483 -4.85,1.55 1.5,-0.67 3.117,-1.18 4.85,-1.55 z m -8.1,-2.75 c -3,0.033 -4.5,-1.184 -4.5,-3.65 0.033,-0.767 0.25,-1.517 0.649,-2.25 0.733,-1.5 1.934,-2.25 3.6,-2.25 1.133,0 2.233,0.566 3.3,1.7 0.966,1.066 1.45,2.05 1.45,2.95 10e-4,2.3 -1.499,3.47 -4.499,3.5 z m 26,-7.7 -5.2,-0.6 -6.2,2.699 c 0.767,-1.833 1.267,-3.75 1.5,-5.75 1.467,1.467 3.033,2.483 4.7,3.051 0.7,-0.134 1.433,-0.233 2.2,-0.301 l 8,0.851 -5,0.05 z m -11.4,2.1 c -0.633,1.467 -1.417,2.867 -2.35,4.2 0.267,-1.67 1.05,-3.07 2.35,-4.2 z m 4.45,-29.9 5.1,2.85 v 1 c 7.1,0.4 12.667,-2.1 16.7,-7.5 l 0.45,-11 c -0.267,-2 -1.184,-3.233 -2.75,-3.7 -11.1,-3.133 -19.483,0.051 -25.15,9.551 1.567,0 2.9,0.85 4,2.55 1.1,1.73 1.65,3.82 1.65,6.25 l -5.65,-8.8 c -0.466,-0.067 -0.933,-0.134 -1.4,-0.2 -12.367,-2.334 -18.6,2.2 -18.7,13.6 0.7,0.3 1.3,0.717 1.8,1.25 1.2,1.3 1.884,3.25 2.05,5.851 10.534,5.199 17.733,1.683 21.6,-10.551 0.133,-0.37 0.233,-0.75 0.3,-1.15 z m 6.95,-5 c -1,-0.934 -1.5,-1.816 -1.5,-2.65 0.034,-0.767 0.25,-1.517 0.65,-2.25 0.767,-1.5 2.05,-2.25 3.85,-2.25 1.8,0 3.133,0.55 4,1.65 0.667,0.866 1,1.866 1,3 0,3.866 -1.583,5.333 -4.75,4.399 -1.2,-0.33 -2.283,-0.97 -3.25,-1.9 z m -22.5,12.95 c -3.333,0.199 -5,-1.284 -5,-4.45 0,-3.101 1.833,-4.65 5.5,-4.65 1.267,0 2.35,0.483 3.25,1.45 0.833,0.934 1.25,2 1.25,3.2 0,1.267 -0.517,2.316 -1.55,3.149 -0.967,0.8 -2.117,1.23 -3.45,1.3 z m -53.7,-5.35 c -0.334,-0.166 -0.684,-0.316 -1.05,-0.45 l -3.8,0.1 c -0.1,0.166 -0.183,0.333 -0.25,0.5 l 5.1,-0.15 z M 65.75,135.7 c 0.233,-1 0.017,-1.816 -0.65,-2.45 -3.533,-3.267 -7.75,-4.2 -12.65,-2.8 l -3.15,8.3 -3.6,2.851 -1.95,8.25 c 6.567,4.833 12.4,4.017 17.5,-2.45 0.367,-0.467 0.717,-0.967 1.05,-1.5 -5.9,-5.5 -4.983,-8.867 2.75,-10.101 0.2,-0.1 0.433,-0.13 0.7,-0.1 z m -33.1,6.65 0.25,-2.65 c 0.633,-1.8 2.133,-2.7 4.5,-2.7 1.967,0 3.383,0.5 4.25,1.5 0.667,0.733 1,1.7 1,2.9 0,1.8 -0.517,3.283 -1.55,4.45 -0.934,1.066 -2.083,1.666 -3.45,1.8 -1.367,0.1 -2.517,-0.283 -3.45,-1.15 -1.033,-0.97 -1.55,-2.35 -1.55,-4.15 z m 5.1,-27.2 c -13.467,-7.066 -20.45,-3.767 -20.95,9.899 0,0.467 0.017,0.934 0.05,1.4 -8.833,-3.3 -15.467,-0.95 -19.9,7.05 0.566,3.2 0.85,4.867 0.85,5 0,2.3 -0.433,4.3 -1.3,6 7,8.566 14.2,6.967 21.6,-4.8 0.267,-0.4 0.533,-0.816 0.8,-1.25 -0.033,1.2 0.017,2.267 0.15,3.2 1.934,14.399 10.167,17.133 24.7,8.2 -0.633,-0.801 -0.95,-1.75 -0.95,-2.851 0,-1.733 0.967,-3.533 2.9,-5.399 -0.067,-0.301 -0.184,-0.551 -0.35,-0.75 -6.767,-7.967 -15.467,-8.967 -26.1,-3 -0.133,0.199 -0.25,0.399 -0.35,0.6 -0.066,-0.2 -0.1,-0.35 -0.1,-0.45 0.134,-0.066 0.284,-0.116 0.45,-0.149 l 1.55,-6.801 c 0.434,0.233 0.884,0.351 1.35,0.351 5.167,0.866 9.7,-0.517 13.6,-4.15 -0.633,-0.633 -0.95,-1.217 -0.95,-1.75 0,-4.1 0.983,-7.55 2.95,-10.35 z m -9.1,8.75 c -1.333,-0.2 -2.483,-0.75 -3.45,-1.65 -1.034,-1 -1.55,-2.116 -1.55,-3.35 0,-0.867 0.25,-1.75 0.75,-2.65 0.833,-1.5 2.167,-2.25 4,-2.25 1.667,0 3,0.584 4,1.75 0.833,1 1.25,2.134 1.25,3.4 0,3.67 -1.667,5.25 -5,4.75 z m -24.2,10.85 c 0.866,-1.5 2.267,-2.25 4.2,-2.25 1.467,0 2.717,0.65 3.75,1.95 0.833,1.033 1.25,1.917 1.25,2.65 0,1.166 -0.517,2.166 -1.55,3 -0.967,0.767 -2.117,1.216 -3.45,1.35 -3.333,0.3 -5,-1.1 -5,-4.2 0,-0.8 0.267,-1.63 0.8,-2.5 z"
   id="path19"
   inkscape:connector-curvature="0"
   style="fill:#bdba5b" />
			<path
   d="m -0.975,248.65 c 1.617,-0.4 3.225,-0.842 4.825,-1.325 l -0.225,-0.475 -4.3,-4.9 c -0.016,2.28 -0.117,4.51 -0.3,6.71 z M 86.525,180 c 0.483,-0.7 0.975,-1.392 1.475,-2.075 -0.367,-0.149 -0.733,-0.291 -1.1,-0.425 l -3.925,-1.75 c -0.55,0.134 -1.092,0.267 -1.625,0.4 l 5.175,3.85 z m 9.3,-13.92 -6,-1.9 c 0.45,0.784 0.925,1.601 1.425,2.45 l 2.725,2.425 c 0.617,-1.01 1.233,-2 1.85,-2.98 z M 52.2,217.5 48.125,213.976 c 0.75,2.816 1.125,4.491 1.125,5.024 -0.233,-0.233 -0.683,-0.608 -1.35,-1.125 l 0.825,2.601 c 1.183,-0.99 2.342,-1.98 3.475,-2.98 z m -34.175,24.05 -2.525,-6.75 -1.025,8.476 c 1.183,-0.55 2.367,-1.13 3.55,-1.73 z m -32.8,9.13 c 0.917,-0.05 1.85,-0.116 2.8,-0.199 l -1.475,-3.48 c -0.433,1.23 -0.875,2.46 -1.325,3.68 z M -30.1,249.85 c 1.567,0.233 3.15,0.433 4.75,0.6 l -2.55,-6.725 c -0.567,2.12 -1.3,4.16 -2.2,6.13 z m -10.6,-10.37 -3.175,6.975 c 1.45,0.467 2.883,0.908 4.3,1.325 l -0.1,-1.65 -1.025,-6.65 z m -12.05,-4.78 -4.5,4.75 -0.65,1 7.5,3.5 -2.35,-9.25 z m -26.8,-6.97 c 1.166,0.816 2.333,1.6 3.5,2.35 0.533,-1.417 1.041,-2.866 1.524,-4.35 l -5.024,2 z M -94.2,215.58 c 1.733,1.783 3.575,3.533 5.525,5.25 l 8.024,-9.65 c 0.134,-0.583 0.275,-1.166 0.426,-1.75 l -1.101,0.325 c -4.049,2.46 -8.341,4.4 -12.874,5.82 z m -18.15,-27.08 c 0.933,2.233 1.966,4.417 3.1,6.55 l 4.55,-4.725 c -2.53,-0.71 -5.08,-1.32 -7.65,-1.82 z m 6.87,13.08 c 0.783,1.184 1.591,2.35 2.425,3.5 2.2,-1.783 4.533,-3.392 7,-4.825 l -9.42,1.32 z M -2.9,60 c -1.467,4.367 -3.817,5.084 -7.05,2.15 V 73.8 L -16.2,62.851 c -1.3,4.699 -3.4,5.566 -6.3,2.6 -0.133,0 -0.25,0.017 -0.35,0.05 l 14,15.5 2.1,-16 L 0.8,75.4 1.6,69.5 -2.9,60 z M 18.975,55.625 29.75,83.851 c 1.233,-0.7 2.4,-1.317 3.5,-1.851 L 37.15,75.101 26.8,75 25.85,70.75 23.65,50 c -1.733,3.3 -3.292,5.175 -4.675,5.625 z M 29.6,49.55 26.575,68.65 C 27.891,66.383 30.967,64.7 35.8,63.6 V 49.35 c -2.6,3.2 -4.667,3.267 -6.2,0.2 z M -68.45,86.4 c -0.066,0.066 -0.066,1.2 0,3.399 0,2.233 -2.233,3.351 -6.7,3.351 -1.733,1.267 0.334,4.616 6.2,10.05 -2.8,-2.366 -5,-4.208 -6.6,-5.525 2.133,2.084 5.3,5.159 9.5,9.226 l -0.2,-4.9 2.75,3.55 -2.25,-15.699 c -1.566,-2.101 -2.467,-3.25 -2.7,-3.451 z m -14.675,-8.025 c 1.05,0.65 2.1,1.334 3.15,2.05 -0.017,-0.916 0.041,-1.858 0.175,-2.824 l 5.625,4.35 -3.175,-7.825 c -2,1.383 -3.925,2.799 -5.775,4.249 z M -88.4,82.8 c -3.466,3.101 -6.633,6.384 -9.5,9.851 l 6.801,3.725 c 0.399,-1.55 2.258,-2.508 5.574,-2.875 C -85.809,89.7 -86.767,86.134 -88.4,82.8 z m -6.825,24.08 c -1.95,-3.283 -4.075,-6.434 -6.375,-9.45 -1.601,2.217 -3.101,4.509 -4.5,6.875 l 0.375,0.2 10.495,2.38 z m -14.355,3.97 c -1.283,2.666 -2.434,5.416 -3.45,8.25 l 7.4,2.524 2.675,-0.425 -6.62,-10.35 z m -1.37,23.4 -4.399,-7.85 c -0.634,2.434 -1.2,4.908 -1.7,7.425 2.233,0.316 4.45,0.717 6.649,1.2 l -0.55,-0.77 z m 50.7,-41.35 c -0.866,-0.4 -0.934,-0.483 -0.2,-0.25 0.066,0.034 0.134,0.117 0.2,0.25 z m -11.7,-22.325 6.275,5.6 -1.575,-6.625 4,3.075 c -0.134,-2.316 -0.384,-4.633 -0.75,-6.95 -2.667,1.584 -5.316,3.217 -7.95,4.9 z m 34,22.475 0.475,-9.149 c -2.783,-6.134 -4.892,-9.967 -6.325,-11.5 0.866,6.066 -0.134,8.75 -3,8.05 -2.9,-0.733 -4.917,-0.667 -6.05,0.2 l -3.7,2.149 c -2.934,1.867 -5.334,2.367 -7.2,1.5 -1.4,0.934 -1.167,3.367 0.7,7.301 l 9.45,8.399 -0.65,-12 13.05,8.9 c 0.733,-1.334 1.817,-2.617 3.25,-3.85 z M -38.2,71.2 c -0.533,2.2 -0.25,5.7 0.85,10.5 l 0.5,-9.55 c -0.633,-0.334 -1.084,-0.65 -1.35,-0.95 z m 8.15,-4.849 -2.7,6.1 11.65,8.5 -2.475,-15.225 c -2.017,0.983 -1.475,4.375 1.625,10.175 -4.033,-6.434 -6.734,-9.618 -8.1,-9.55 z M 2,56.2 2.5,61.425 C 2.667,61.276 2.75,60.967 2.75,60.5 3.684,61.7 5.733,66.101 8.9,73.7 l 3.75,4.3 5,-22.375 -2.7,-1.274 C 13.283,54.384 12.967,59.601 14,70 12.434,59.8 11.583,54.384 11.45,53.75 11.283,53.816 10.683,55.217 9.65,57.95 8.583,60.584 6.033,60 2,56.2 z M 41.5,49.15 37.15,63.1 46.4,53.2 41.5,49.15 z M -115.52,179.6 c 2.051,-0.601 4.108,-1.134 6.176,-1.601 0.933,-0.434 1.85,-0.825 2.75,-1.175 l -9.926,-0.95 c 0.31,1.25 0.64,2.5 1,3.73 z m -3.46,-22.4 c 0.05,1.5 0.125,2.991 0.225,4.475 l 4.25,-2.125 2.05,-0.675 c -2.16,-0.62 -4.33,-1.18 -6.52,-1.68 z"
   id="path21"
   inkscape:connector-curvature="0"
   style="fill:#676430" />
			<path
   d="m 64.25,177.45 c -0.133,-0.267 -0.267,-0.483 -0.4,-0.65 -4.6,-0.633 -8.6,1.25 -12,5.65 -0.1,0.134 -0.167,0.283 -0.2,0.45 l 1.95,2.149 2.7,-1.5 c 1.942,-1.823 3.925,-2.591 5.95,-2.3 1.619,0.232 2.627,0.999 3.025,2.3 l -1.025,-6.1 z m 6.35,-23 c -0.833,-0.5 -1.684,-0.733 -2.55,-0.7 -4.733,0.8 -8.083,3.2 -10.05,7.2 l 3.65,2.15 6.85,2.6 c 0.081,-0.225 0.173,-1.008 0.275,-2.35 0.103,-1.343 1.394,-2.042 3.875,-2.101 l 2.25,-1.05 c -1.233,-2.866 -2.65,-4.783 -4.25,-5.75 H 70.6 z M 38.45,172 c 0.1,0.101 0.2,0.167 0.3,0.2 l 5.9,0.4 c 0.133,-0.101 0.25,-0.233 0.35,-0.4 1.533,-2.267 1.633,-4.634 0.3,-7.1 -3.3,-2.4 -6.3,-2.233 -9,0.5 0,0.333 -0.033,0.649 -0.1,0.949 -0.4,2.23 0.35,4.05 2.25,5.45 z m 2.7,15.25 c 0,-1.733 -0.767,-2.733 -2.3,-3 -8.934,-0.533 -9.65,2.033 -2.15,7.7 0.125,0.031 0.233,0.048 0.325,0.05 H 37.5 c 2.4,-0.07 3.617,-1.65 3.65,-4.75 z m -7.25,15 V 201.4 L 33.15,197 c -5.267,1.667 -9.6,4.584 -13,8.75 l 1.25,1.601 2.9,-0.35 c 0.088,-0.325 1.713,-1.5 4.875,-3.524 3.113,-2 4.688,-2.41 4.725,-1.23 z m 75.15,-83.15 -2.05,-2.6 -2.9,-2.649 c -7.233,3.1 -9.25,8.416 -6.05,15.949 0.067,0.101 0.167,0.2 0.3,0.301 l 3.15,-1 1.35,-2.351 c 0.358,0.127 -0.042,-1.256 -1.2,-4.149 -1.158,-2.893 1.31,-4.06 7.4,-3.5 z M 88.4,143.85 c -7.133,-1.733 -10.383,1.983 -9.75,11.149 l 1.8,0.45 2.85,-3.8 c 0.05,0.191 0.767,-0.733 2.15,-2.775 1.384,-2.041 3.6,-2.791 6.65,-2.25 l -3.7,-2.78 z M 85.75,113.9 c 0,-0.8 -0.517,-1.483 -1.55,-2.05 -1.067,-0.567 -2.35,-0.851 -3.85,-0.851 l -3.65,2.05 c -0.1,0.233 -0.184,0.45 -0.25,0.65 -0.9,3.267 -0.034,5.75 2.6,7.45 0.133,0.066 0.284,0.116 0.45,0.149 1.833,0 3.4,-0.566 4.7,-1.699 1.3,-1.101 1.95,-2.434 1.95,-4 l -0.4,-1.7 z m 4.15,14.75 2.55,0.5 2.4,-1 c 0.133,-0.233 0.25,-0.5 0.35,-0.8 1.033,-2.934 0.267,-5.167 -2.3,-6.7 -0.333,-0.167 -0.7,-0.3 -1.1,-0.4 l -4,0.2 c -0.133,0.066 -0.233,0.15 -0.3,0.25 -2.2,3.43 -1.4,6.08 2.4,7.95 z m 16.15,-29.549 -4.3,-2.601 c -9.933,1.834 -11.45,5.4 -4.55,10.7 0.233,0.134 0.583,0.134 1.05,0 0.5,-0.3 1.017,-0.616 1.55,-0.95 0.267,0.101 0.534,0.2 0.8,0.3 -3.414,-5.65 -1.597,-8.13 5.45,-7.449 z m -19,-6.5 C 85.317,92.566 83.8,93 82.5,93.9 c -1.3,0.934 -1.967,2.05 -2,3.35 -0.033,1.334 0.567,2.483 1.8,3.45 1.2,0.967 2.7,1.45 4.5,1.45 0.633,-0.2 1.217,-0.55 1.75,-1.05 l 1.6,-4.1 c -3.553,0.738 -4.587,-0.729 -3.1,-4.399 z M 71.55,90.2 71.15,89.65 c -0.944,2.351 -2.077,3.767 -3.4,4.25 -1.323,0.482 -2.406,-1.801 -3.25,-6.851 h -0.55 c -1.667,0.7 -2.567,1.784 -2.7,3.25 -0.833,10.534 2.467,12.467 9.9,5.801 l 0.4,-5.9 z m -3.2,-15.099 -2.4,2.75 c 0.533,2.366 2.066,3.966 4.6,4.8 l 2.7,-1.65 -0.6,2.45 c 2.267,0 4.217,-0.417 5.85,-1.25 1.6,-0.833 2.4,-1.85 2.4,-3.05 0.233,-0.467 0.417,-1 0.55,-1.601 0.033,-0.333 0.083,-0.666 0.15,-1 -6.77,2.066 -8.203,-0.051 -4.3,-6.35 l -3.55,-0.05 -5.4,4.951 z M 89.3,71 c -0.2,0.134 -0.333,0.267 -0.4,0.4 -3.267,7.066 -0.85,9.733 7.25,8 1.467,0 2.733,-0.351 3.8,-1.05 1.033,-0.7 1.55,-1.551 1.55,-2.551 -7.131,-1.533 -7.281,-3.066 -0.45,-4.6 l -0.325,-0.575 c -0.083,-0.149 -0.184,-0.291 -0.3,-0.425 -0.183,-0.2 -0.392,-0.366 -0.625,-0.5 -1.966,-1.467 -4.008,-1.583 -6.125,-0.35 -1.812,0.467 -3.27,1.018 -4.37,1.651 z m -74.8,137.95 0.6,-3.05 -0.4,-1.101 -0.05,-4.35 c -5.3,-0.6 -9.383,1.35 -12.25,5.85 l 2.9,2.45 0.3,1.05 c 0.433,1 1.2,1.601 2.3,1.801 0.801,-6.05 2.917,-6.833 6.35,-2.351 0.1,-0.1 0.184,-0.2 0.25,-0.3 z m -17.35,11.85 2.35,-2.25 0.6,-5.1 c -5.333,-1.833 -10.6,-0.85 -15.8,2.95 l 3.05,3.6 h 1.75 c 5.815,-3.798 8.365,-3.464 7.65,1 0.133,-0.07 0.267,-0.13 0.4,-0.2 z m -6.175,-10.78 2.275,-1.4 c -0.367,-8.149 -2.934,-8.691 -7.7,-1.625 -0.633,0.967 -0.517,1.95 0.35,2.95 l 5.075,0.07 z M 10.65,193 c 0.534,0.233 1.117,0.384 1.75,0.45 3.167,0.333 4.75,-1.066 4.75,-4.2 0,-0.866 -0.417,-1.8 -1.25,-2.8 -1.1,-1.3 -2.517,-1.95 -4.25,-1.95 -2.1,0 -3.383,0.7 -3.85,2.101 -0.1,1.466 -0.15,2.233 -0.15,2.3 0,1.233 0.5,2.3 1.5,3.2 0.467,0.4 0.967,0.7 1.5,0.9 z M -14.1,170.95 c 0.3,-0.033 0.583,-0.083 0.85,-0.15 2.267,-0.533 3.4,-2.133 3.4,-4.8 0,-2.666 -1.333,-4 -4,-4 -1.8,0 -3.083,0.9 -3.85,2.7 -0.433,1.8 -0.65,2.733 -0.65,2.8 0,1.167 0.45,2.084 1.35,2.75 0.8,0.57 1.767,0.8 2.9,0.7 z m 1.25,17.3 c 0,-1.133 -0.333,-2.133 -1,-3 -0.9,-1.166 -2.233,-1.75 -4,-1.75 -2.367,0 -3.9,0.7 -4.6,2.101 -0.366,0.733 -0.5,1.5 -0.4,2.3 0,2.467 1.667,3.883 5,4.25 0.167,0.033 0.333,0.05 0.5,0.05 1.733,0.1 2.967,-0.3 3.7,-1.2 0.533,-0.63 0.8,-1.55 0.8,-2.75 z m -65.3,13.65 1.601,2.05 c -0.865,0.436 0.793,1.561 4.975,3.375 4.18,1.811 3.488,3.702 -2.075,5.675 l -1.75,0.65 6.051,0.45 3.8,-2.25 c -0.334,-6.2 -3.283,-10.834 -8.851,-13.9 -0.633,-0.333 -1.283,-0.65 -1.949,-0.95 l -1.802,4.9 z m 89.55,-30.95 5.25,-0.75 c 1.3,-1.333 1.4,-2.4 0.3,-3.2 -7.9,-5.7 -9.75,-4.38 -5.55,3.95 z m -70.65,37.45 0.1,6.225 c 0.714,0.009 2.081,-0.333 4.101,-1.024 2.02,-0.692 2.402,0.708 1.149,4.199 1.301,0 2.417,-0.316 3.351,-0.949 0.899,-0.634 1.35,-1.4 1.35,-2.301 0.533,-6.833 -2.649,-9.183 -9.55,-7.05 -0.134,-0.033 -0.233,0.033 -0.3,0.2 -0.101,0.23 -0.168,0.47 -0.201,0.7 z m -8.55,-15.35 c 1,1.067 2.149,1.817 3.45,2.25 3.333,1 5,-0.433 5,-4.3 0,-1.033 -0.334,-2.133 -1,-3.3 -1,-1.8 -2.5,-2.7 -4.5,-2.7 -1.7,0 -2.95,0.65 -3.75,1.95 -0.5,0.8 -0.75,1.616 -0.75,2.45 0,1.27 0.517,2.48 1.55,3.65 z m -30.35,-10.55 4.4,-0.95 c 7.434,-0.934 8.834,1.15 4.2,6.25 0.133,0.067 0.267,0.134 0.399,0.2 l 6.051,0.101 c 3.666,-3.567 4.383,-7.733 2.149,-12.5 l -2.95,-0.4 c -0.966,0.267 -2.449,0.866 -4.449,1.8 l -9.851,5.4 c 10e-4,0.03 0.017,0.07 0.051,0.1 z m 2.55,-32.2 c 0.366,0.134 0.716,0.284 1.05,0.45 7.891,2.256 9.058,5.473 3.5,9.65 0.033,0.066 0.083,0.1 0.149,0.1 l 2.551,1.15 c 9,-2.2 9.899,-6.417 2.699,-12.65 -0.399,-0.333 -1.033,-0.416 -1.899,-0.25 l -8.05,1.55 z m -6.55,12.95 -4.1,4.15 c 4.684,0.648 6.934,2.057 6.75,4.225 -0.184,2.168 -0.718,3.693 -1.6,4.575 8.5,-0.9 9.183,-5.217 2.05,-12.95 -0.834,-0.87 -1.87,-0.87 -3.1,0 z m 39.05,5.7 c 1.133,-0.134 2.1,-0.566 2.899,-1.3 0.9,-0.834 1.351,-1.8 1.351,-2.9 0,-0.833 -0.367,-1.767 -1.101,-2.8 -0.934,-1.3 -2.066,-1.95 -3.399,-1.95 -1.834,0 -3.051,0.75 -3.65,2.25 -0.233,0.601 -0.35,1.434 -0.35,2.5 0,3.17 1.416,4.57 4.25,4.2 z m 31,33.75 c 0.833,-0.967 1.25,-1.833 1.25,-2.6 0,-1 -0.367,-1.884 -1.1,-2.65 -0.933,-0.967 -2.233,-1.45 -3.9,-1.45 -2.367,0 -3.816,0.7 -4.35,2.101 -0.1,1.466 -0.15,2.233 -0.15,2.3 0,1.233 0.233,2.166 0.7,2.8 0.667,0.866 1.85,1.3 3.55,1.3 1.6,0 2.933,-0.6 4,-1.8 z m -12.25,-19.05 c 3,-0.033 4.5,-1.2 4.5,-3.5 0,-0.9 -0.483,-1.884 -1.45,-2.95 -1.067,-1.134 -2.167,-1.7 -3.3,-1.7 -1.667,0 -2.867,0.75 -3.6,2.25 -0.399,0.733 -0.616,1.483 -0.649,2.25 -0.001,2.47 1.499,3.68 4.499,3.65 z m 3.5,-27.55 c 1.333,-0.067 2.483,-0.5 3.45,-1.301 1.033,-0.833 1.55,-1.883 1.55,-3.149 0,-1.2 -0.417,-2.267 -1.25,-3.2 -0.9,-0.967 -1.983,-1.45 -3.25,-1.45 -3.667,0 -5.5,1.55 -5.5,4.65 0,3.17 1.666,4.65 5,4.45 z m 22.5,-12.95 c 0.967,0.934 2.05,1.566 3.25,1.899 3.167,0.934 4.75,-0.533 4.75,-4.399 0,-1.134 -0.333,-2.134 -1,-3 -0.867,-1.101 -2.2,-1.65 -4,-1.65 -1.8,0 -3.083,0.75 -3.85,2.25 -0.4,0.733 -0.616,1.483 -0.65,2.25 0,0.83 0.5,1.72 1.5,2.65 z m -29.55,-16.1 1.351,2.7 c 0.2,0.134 0.416,0.267 0.649,0.4 6.934,-0.467 8.4,-3.167 4.4,-8.101 l -2.8,-1.75 -4.8,-2.8 0.1,6.101 1.1,3.45 z M 46.65,77.5 45.85,75.9 c -0.367,-0.5 -0.783,-0.917 -1.25,-1.25 1.59,2.23 1.715,4.03 0.375,5.399 -1.34,1.37 -4.065,1.47 -8.175,0.301 l -3.4,1.55 c 0,1.533 0.633,2.833 1.9,3.899 1.267,1.067 2.8,1.601 4.6,1.601 l 3.5,-2.7 0.45,2.95 c 0.333,-0.066 0.667,-0.15 1,-0.25 4.367,-1.934 5.2,-5.066 2.5,-9.4 L 46.8,77.9 c -0.067,-0.133 -0.117,-0.266 -0.15,-0.4 z m 10.6,-15.45 -2.85,-4.35 0.7,2.45 c -0.232,-0.422 0.026,0.736 0.775,3.475 0.749,2.739 -3.276,2.33 -12.075,-1.225 l -4.4,0.5 c -0.833,1.033 -1.25,1.7 -1.25,2 0,1.3 0.85,2.55 2.55,3.75 l 0.3,0.2 c 5.9,3.833 11.783,4.116 17.65,0.85 l -1.4,-7.65 z m -120.05,76.8 c -0.099,-0.23 -1.115,0.261 -3.05,1.475 -1.938,1.208 -3.922,2.6 -5.95,4.175 0.133,0.267 0.316,0.45 0.55,0.55 6.3,3.67 9.116,1.6 8.45,-6.2 z m -17.85,-22.8 -5.449,-1.55 c 3.535,3.108 5.077,6.475 4.625,10.101 -0.456,3.619 -3.731,2.103 -9.825,-4.551 0.1,0.834 0.583,1.684 1.45,2.551 l 3.85,2.55 -1.5,2.35 2.05,2.5 c 6.033,-1.967 9.417,-5.983 10.15,-12.05 l -3.95,-1.05 c -0.2,0.2 -0.316,0.267 -0.35,0.2 -0.434,-0.2 -0.785,-0.55 -1.051,-1.05 z m 28.45,-3.55 -1.399,0.601 c -2.13,2.956 -5.181,4.539 -9.15,4.75 l -2.4,1.649 c 0.067,0.2 0.184,0.334 0.351,0.4 9.631,5.13 13.831,2.67 12.598,-7.4 z m 38.9,-0.35 -2.75,-1.55 c -1.867,0 -3.467,0.5 -4.8,1.5 -1.333,1 -2,2.199 -2,3.6 v 0.35 c 0.067,0.334 0.2,0.567 0.4,0.7 6.5,4.9 9.55,3.37 9.15,-4.6 z M -32.75,96.101 V 91.5 c 0.233,0.101 2.75,1.533 7.55,4.3 2.267,0 4.2,-1.133 5.8,-3.399 1.6,-2.233 2.4,-4.934 2.4,-8.101 l -4.85,1.301 c 1.153,2.397 -0.089,3.923 -3.725,4.574 -3.636,0.652 -5.294,0.145 -4.975,-1.524 l -7.15,4.25 4.95,3.2 z m 11.6,4.899 c -0.133,-0.294 -1.175,0.022 -3.125,0.95 -1.956,0.926 -4.747,0.492 -8.375,-1.3 l -0.1,1.8 c 0.167,0.6 0.566,1.167 1.2,1.7 2.4,2.033 5.183,2.684 8.35,1.95 0.3,0.033 0.583,-0.017 0.85,-0.15 l 1.2,-4.95 z m 86.9,34.7 c -0.267,-0.033 -0.5,0 -0.7,0.1 -7.733,1.233 -8.65,4.601 -2.75,10.101 0.367,0.066 0.7,0.05 1,-0.05 6.233,-2.2 7.05,-5.58 2.45,-10.15 z m -33.1,6.65 c 0,1.8 0.517,3.183 1.55,4.149 0.933,0.867 2.083,1.25 3.45,1.15 1.367,-0.134 2.517,-0.733 3.45,-1.8 1.033,-1.167 1.55,-2.65 1.55,-4.45 0,-1.2 -0.333,-2.167 -1,-2.9 -0.867,-1 -2.283,-1.5 -4.25,-1.5 -2.367,0 -3.867,0.9 -4.5,2.7 l -0.25,2.65 z m 28.1,-25.05 c 0,-2.166 -0.4,-4.017 -1.2,-5.55 -0.8,-1.5 -1.775,-2.25 -2.925,-2.25 -7.55,5.467 -6.425,8.2 3.375,8.2 0.233,0 0.483,-0.13 0.75,-0.4 z m -56.3,17.45 c -0.534,0.867 -0.8,1.7 -0.8,2.5 0,3.101 1.667,4.5 5,4.2 1.333,-0.134 2.483,-0.583 3.45,-1.35 1.033,-0.834 1.55,-1.834 1.55,-3 0,-0.733 -0.417,-1.617 -1.25,-2.65 -1.033,-1.3 -2.283,-1.95 -3.75,-1.95 -1.933,0 -3.334,0.75 -4.2,2.25 z m 24.2,-10.85 c 3.333,0.5 5,-1.084 5,-4.75 0,-1.267 -0.417,-2.4 -1.25,-3.4 -1,-1.166 -2.333,-1.75 -4,-1.75 -1.833,0 -3.167,0.75 -4,2.25 -0.5,0.9 -0.75,1.783 -0.75,2.65 0,1.233 0.517,2.35 1.55,3.35 0.967,0.9 2.116,1.45 3.45,1.65 z M 1.8,98 1.35,104.351 c 5.533,7.199 9.15,6.116 10.85,-3.25 0.033,-0.267 -0.034,-0.567 -0.2,-0.9 l -4,-4.7 c -1.6,-1.3 -3.217,-1.967 -4.85,-2 -0.466,1.934 -0.917,3.434 -1.35,4.5 z M 13.6,79 H 12.9 C 12.834,78.667 12.75,78.334 12.65,78 L 8.9,73.7 c -0.5,-0.066 -1,-0.134 -1.5,-0.2 5.616,5.595 3.416,8.428 -6.6,8.5 l -1.6,0.9 c -0.667,1.899 -0.384,3.217 0.85,3.95 9.967,5.734 14.483,3.117 13.55,-7.85 z M 44.45,91.851 C 44.416,91.817 44.383,91.8 44.35,91.8 c -0.074,0.741 -0.474,2.35 -1.2,4.825 -0.726,2.475 -3.226,1.867 -7.5,-1.825 L 33.1,95 c -0.833,1.4 -0.833,2.584 0,3.55 7.4,8.233 11.85,6.917 13.35,-3.949 l -2,-2.75 z"
   id="path23"
   inkscape:connector-curvature="0"
   style="fill:#73612f" />
			<path
   d="M 88.4,143.85 90.8,140 v -5 h -6 c -1.7,0.101 -4.1,2.434 -7.2,7 -0.667,3.5 -2.383,6.884 -5.15,10.15 -0.6,0.733 -1.2,1.467 -1.8,2.2 v 0.1 c 1.6,0.967 3.017,2.884 4.25,5.75 0.133,-0.066 0.267,-0.15 0.4,-0.25 1.7,-1 3.35,-2.4 4.95,-4.2 l 0.2,-0.3 -1.8,-0.45 c -0.633,-9.17 2.617,-12.88 9.75,-11.15 z m 5.75,-31.15 -1.25,7.95 c 2.567,1.533 3.333,3.767 2.3,6.7 -0.1,0.3 -0.217,0.566 -0.35,0.8 l -2.4,1 c -0.167,2.934 -0.35,5.366 -0.55,7.3 l 5.75,-2.45 3.55,-4.45 c 0.1,-0.133 0.2,-0.283 0.3,-0.449 l -3.15,1 c -0.133,-0.101 -0.233,-0.2 -0.3,-0.301 -3.2,-7.533 -1.183,-12.85 6.05,-15.949 l 2.9,2.649 c 0.267,-1.033 0.467,-2.008 0.6,-2.925 l -0.8,-5.625 -3.95,-0.95 -5.15,1.101 c -1.333,2.09 -2.517,3.62 -3.55,4.59 0.767,-2.1 1.95,-3.634 3.55,-4.6 l 0.55,-0.9 c -0.467,0.134 -0.817,0.134 -1.05,0 -6.9,-5.3 -5.383,-8.866 4.55,-10.7 -0.2,-0.6 -0.7,-1.3 -1.5,-2.1 -3.423,-3.115 -6.39,-2.89 -8.9,0.675 -0.203,0.285 -0.403,0.593 -0.6,0.925 -0.119,0.198 -0.236,0.398 -0.35,0.601 -0.086,0.132 -0.169,0.265 -0.25,0.399 l -1.6,4.101 -0.5,11.949 6.1,-0.35 z m -2.35,7.55 c -0.033,-2.934 -0.933,-4.866 -2.7,-5.8 -1.033,0.333 -2.017,0.717 -2.95,1.15 0,1.566 -0.65,2.899 -1.95,4 -1.3,1.133 -2.867,1.699 -4.7,1.699 l -2.95,3.95 c 0.667,-1.5 1.5,-2.866 2.5,-4.1 -2.633,-1.7 -3.5,-4.184 -2.6,-7.45 0.066,-0.2 0.15,-0.417 0.25,-0.65 l 3.65,-2.05 -0.85,-1.25 c -1.833,-0.6 -3.733,-0.85 -5.7,-0.75 -3.733,-0.434 -6.2,0.934 -7.4,4.101 -5.167,13.633 -1.783,17.683 10.15,12.149 l -1.75,12.75 c 6.1,-1.399 11.133,-4.517 15.1,-9.35 -3.8,-1.867 -4.6,-4.517 -2.4,-7.95 0.067,-0.1 0.167,-0.184 0.3,-0.25 l 4,-0.2 z M 89.3,71 C 87.033,68.967 85.042,67.709 83.325,67.226 L 81.2,67.2 l -1.5,1.95 1.9,7.399 c -0.067,0.334 -0.117,0.667 -0.15,1 l 5.3,10.5 8,1.95 H 96.8 V 81.85 L 96.15,79.4 c -8.1,1.733 -10.517,-0.934 -7.25,-8 0.067,-0.133 0.2,-0.266 0.4,-0.4 z m -96.25,43.2 c -1.667,-1.833 -3.733,-2.517 -6.2,-2.05 h -0.15 c 0.4,7.967 -2.65,9.5 -9.15,4.6 -0.2,-0.133 -0.333,-0.366 -0.4,-0.7 -0.7,0.233 -1.35,0.417 -1.95,0.551 -1.733,0.833 -2.95,1.566 -3.65,2.199 l 1.1,4.2 c 7.034,2.033 13.717,1.3 20.05,-2.2 0.566,-0.3 1.1,-0.683 1.6,-1.149 l -1.25,-5.45 c 1.167,1.2 1.75,2.467 1.75,3.8 0,0.566 -0.167,1.117 -0.5,1.65 l 4.15,1.2 c 1.066,-0.5 2.15,-0.95 3.25,-1.351 7.667,-3.1 14.066,-7.783 19.2,-14.05 -0.933,-0.467 -1.633,-0.95 -2.1,-1.45 0.7,-1.533 1.5,-2.866 2.4,-4 0.2,0 0.35,0.05 0.45,0.15 1.333,1.533 1.083,3.3 -0.75,5.3 11.067,7.167 20.617,6.517 28.65,-1.95 0.434,-0.467 0.817,-1 1.15,-1.6 -1.167,-1.867 -1.8,-3.983 -1.9,-6.351 1.333,1 2,2.65 2,4.95 0,0.467 -0.033,0.934 -0.1,1.4 0.367,0.5 0.767,0.95 1.2,1.35 8.167,7.233 15.117,6.2 20.85,-3.1 0.167,0.333 0.35,0.649 0.55,0.95 6.567,10.933 11.067,11.283 13.5,1.05 -1.8,0 -3.3,-0.483 -4.5,-1.45 -1.233,-0.967 -1.833,-2.116 -1.8,-3.45 0.033,-1.3 0.7,-2.416 2,-3.35 1.3,-0.9 2.817,-1.334 4.55,-1.3 -0.033,-0.2 -0.05,-0.4 -0.05,-0.6 -0.033,-0.366 -0.083,-0.7 -0.15,-1 -0.5,-2.566 -1.917,-4.149 -4.25,-4.75 0.133,-0.5 0.2,-1.083 0.2,-1.75 0,-2.166 -0.633,-3.95 -1.9,-5.35 0,1.2 -0.8,2.217 -2.4,3.05 -1.633,0.833 -3.583,1.25 -5.85,1.25 -0.4,1.6 -0.767,3.134 -1.1,4.6 0.4,0.167 0.767,0.317 1.1,0.45 1.567,-1.666 4.117,-2.5 7.65,-2.5 0.833,0 1.6,0.084 2.3,0.25 -0.133,0.334 -0.317,0.634 -0.55,0.9 -1.9,2.366 -4.65,2.967 -8.25,1.8 l -1.7,0.25 c 1.133,1.066 1.7,2.833 1.7,5.3 0,2.066 -0.35,3.95 -1.05,5.65 -0.733,-1.566 -1.267,-2.917 -1.6,-4.05 -7.433,6.666 -10.733,4.733 -9.9,-5.801 0.133,-1.466 1.033,-2.55 2.7,-3.25 -5.034,-0.767 -9.45,0.184 -13.25,2.851 l -1.9,5.649 -2.35,-0.949 c -1.5,10.866 -5.95,12.183 -13.35,3.949 -0.833,-0.966 -0.833,-2.149 0,-3.55 -0.333,0 -0.633,-0.017 -0.9,-0.05 -0.634,-0.066 -1.217,-0.184 -1.75,-0.35 -1.9,0.399 -3.55,0.983 -4.95,1.75 -1.633,0.866 -3.066,2.083 -4.3,3.649 l -9.2,0.2 c 0.167,0.333 0.233,0.634 0.2,0.9 -1.7,9.366 -5.317,10.449 -10.85,3.25 -0.133,0.066 -0.25,0.133 -0.35,0.199 -4.533,2.9 -7.184,6.12 -7.95,9.65 z M -5.4,86.851 c -2.467,3.199 -3.184,6.666 -2.15,10.399 0.033,0.167 0.116,0.3 0.25,0.4 L 1.8,98 C 2.234,96.934 2.684,95.434 3.15,93.5 4.783,93.533 6.4,94.2 8,95.5 20.533,91 22.816,85.667 14.85,79.5 14.517,79.233 14.1,79.066 13.6,79 14.533,89.967 10.017,92.584 0.05,86.851 -1.184,86.117 -1.467,84.8 -0.8,82.9 c -0.134,0.066 -0.25,0.133 -0.35,0.2 -1.767,1.1 -3.183,2.35 -4.25,3.751 z m 61.95,-10 c -0.7,0.566 -1.35,1.25 -1.95,2.05 1.467,0.666 2.2,1.7 2.2,3.1 v 0.05 l 9.25,3.9 c 1.367,-0.967 2.867,-2.066 4.5,-3.3 -2.533,-0.834 -4.066,-2.434 -4.6,-4.8 l 2.4,-2.75 L 63.85,75 64.7,66.7 c -0.233,-1.9 -0.867,-3.15 -1.9,-3.75 -0.9,-0.467 -2.75,-0.767 -5.55,-0.9 l 1.4,7.65 C 52.783,72.967 46.9,72.683 41,68.85 l 3.6,5.8 c 0.467,0.333 0.883,0.75 1.25,1.25 l 10.7,0.951 z m -12.1,15 12.3,-7.801 0.05,-2 c -1.167,-0.666 -2.167,-1.35 -3,-2.05 0.267,-0.399 0.534,-0.767 0.8,-1.1 L 47.75,78 h -0.4 c 2.7,4.334 1.867,7.467 -2.5,9.4 -0.333,0.1 -0.667,0.184 -1,0.25 l 0.5,4.149 c 0.033,10e-4 0.067,0.017 0.1,0.052 z M 63.85,75 63.8,76 56.55,76.851 63.85,75 z m -152.2,86.65 1,9.95 10.399,-13 c 0.4,-0.867 0.75,-1.7 1.05,-2.5 0,-0.2 0.034,-0.417 0.101,-0.65 l 1.35,-10.8 -0.85,8.3 c -0.033,0.833 -0.167,1.684 -0.4,2.55 l 8.45,0.5 c 1.9,-1.934 4.533,-3.166 7.9,-3.7 L -53.2,138 h 7.05 c 0.301,-0.233 0.617,-0.416 0.95,-0.55 7.7,-3.2 13.65,-8.017 17.85,-14.45 -1.533,-0.434 -2.033,-1.6 -1.5,-3.5 0.067,-0.233 0.2,-0.467 0.4,-0.7 -0.9,-0.533 -2.316,-0.8 -4.25,-0.8 -1.966,0 -4.9,1.351 -8.8,4.05 4,4.934 2.533,7.634 -4.4,8.101 -0.233,-0.134 -0.449,-0.267 -0.649,-0.4 l -1.351,-2.7 -5.3,4.95 v 5.65 l -2.399,-7 6.6,-7.05 -0.1,-6.101 4.8,2.8 4.1,-3.6 c 1.333,-2.767 1.384,-5.5 0.15,-8.2 -0.034,-0.1 -0.067,-0.217 -0.1,-0.35 l -11.75,4.2 c -0.133,0.066 -0.233,0.116 -0.3,0.149 1.233,10.066 -2.967,12.533 -12.6,7.4 -0.167,-0.066 -0.283,-0.2 -0.351,-0.4 -0.033,0.033 -0.066,0.066 -0.1,0.101 -4.066,2.466 -6,5.966 -5.8,10.5 v 0.199 l 6.3,0.7 c -1.366,1.033 -2.767,2.45 -4.2,4.25 l 7.65,1.2 -1.5,2.4 c 0.666,7.8 -2.15,9.866 -8.45,6.199 -0.233,-0.1 -0.417,-0.283 -0.55,-0.55 -0.533,-0.633 -1.101,-1.333 -1.7,-2.1 -0.366,0.767 -0.684,1.517 -0.95,2.25 -3.866,-5.066 -7.816,-4.316 -11.85,2.25 -0.4,0.633 -0.816,1.25 -1.25,1.85 0.866,-0.166 1.5,-0.083 1.899,0.25 7.201,6.23 6.301,10.45 -2.699,12.65 z M 29.75,83.851 22.8,88 l 7.65,6.601 c 0.767,-0.134 1.583,-0.25 2.45,-0.351 l 7,-6.85 c -1.8,0 -3.333,-0.533 -4.6,-1.601 -1.267,-1.066 -1.9,-2.366 -1.9,-3.899 -0.066,0.033 -0.117,0.066 -0.15,0.1 -1.1,0.533 -2.267,1.15 -3.5,1.851 z M 25.85,70.75 26.8,75 l 10.35,0.101 3.55,-6.45 c -1.7,-1.2 -2.55,-2.45 -2.55,-3.75 0,-0.3 0.417,-0.967 1.25,-2 l -2.5,0.45 c -0.367,0.066 -0.733,0.149 -1.1,0.25 -4.833,1.1 -7.908,2.783 -9.225,5.05 -0.384,0.665 -0.625,1.366 -0.725,2.099 z m -101.4,42.5 c -0.634,0.566 -1.3,1.2 -2,1.9 -0.134,0.133 -0.267,0.258 -0.4,0.375 -0.267,0.283 -0.533,0.559 -0.8,0.825 -0.167,0.199 -0.333,0.383 -0.5,0.55 l 3.95,1.05 c -0.733,6.066 -4.117,10.083 -10.15,12.05 l -2.05,-2.5 c -0.033,0.033 -0.066,0.066 -0.1,0.101 -0.233,0.399 -0.45,0.783 -0.65,1.149 l -1.95,12.26 c 15.101,-7.967 22.5,-18.7 22.2,-32.2 l -7.55,4.45 z m 42.8,-7.45 -3.4,9.551 11.35,1.25 c 0.566,-0.267 1.216,-0.567 1.95,-0.9 0,-1.4 0.667,-2.6 2,-3.6 1.333,-1 2.934,-1.5 4.8,-1.5 l 3.95,-8.101 -3.6,-1.5 h -5.45 l -1.2,4.95 c -0.267,0.134 -0.55,0.184 -0.85,0.15 -3.167,0.733 -5.95,0.083 -8.35,-1.95 l -1.2,1.65 z m 25,-23.3 c -0.4,0.066 -0.85,0.15 -1.35,0.25 l -6.65,1.3 c -0.434,0.101 -0.85,0.184 -1.25,0.25 0,3.167 -0.8,5.867 -2.4,8.101 -1.6,2.267 -3.534,3.399 -5.8,3.399 l 3.4,1.9 c 6.633,-1.2 11.5,-4.717 14.6,-10.55 0.367,-0.7 0.717,-1.417 1.05,-2.15 0.367,-0.934 0.683,-1.934 0.95,-3 -0.234,0.066 -1.083,0.233 -2.55,0.5 z m -25,13.601 -4.95,-3.2 c -0.1,0.066 -0.183,0.116 -0.25,0.149 -1.433,1.233 -2.517,2.517 -3.25,3.851 l -1,3.1 c 1.867,2.167 4.217,2.601 7.05,1.3 0.8,-0.199 1.6,-0.399 2.4,-0.6 V 96.102 z M 56.625,109.5 c -4.117,-3.633 -10.408,-1.75 -18.875,5.65 0.7,1.1 1.05,2.383 1.05,3.85 0,3.367 -1.017,6.117 -3.05,8.25 l 0.75,0.7 22.6,-3.2 c 1.8,-2.2 2.383,-4.55 1.75,-7.05 -0.033,-0.134 -0.067,-0.267 -0.1,-0.4 -0.267,0.267 -0.517,0.4 -0.75,0.4 -9.8,0 -10.925,-2.73 -3.375,-8.2 z"
   id="path25"
   inkscape:connector-curvature="0"
   style="fill:#8d8845" />
			<path
   d="m 44.65,172.6 c 1.767,0.399 3.417,0.833 4.95,1.3 l -1.3,-2.8 c -0.133,-0.367 -0.15,-0.717 -0.05,-1.051 4.7,-14.033 14.483,-23.383 29.35,-28.05 l -6.95,12.351 c 0.6,-0.733 1.2,-1.467 1.8,-2.2 2.767,-3.267 4.483,-6.65 5.15,-10.15 3.1,-4.566 5.5,-6.899 7.2,-7 h 6 v 2.5 c 0.367,-0.333 0.733,-0.684 1.1,-1.05 0.2,-1.934 0.383,-4.366 0.55,-7.3 l -2.55,-0.5 c -3.967,4.833 -9,7.95 -15.1,9.35 l 1.75,-12.75 c -11.933,5.533 -15.316,1.483 -10.15,-12.149 1.2,-3.167 3.667,-4.534 7.4,-4.101 1.967,-0.1 3.867,0.15 5.7,0.75 l 0.85,1.25 c 1.5,0 2.783,0.283 3.85,0.851 1.033,0.566 1.55,1.25 1.55,2.05 l 3.35,0.55 c 1.767,0.934 2.667,2.866 2.7,5.8 0.4,0.101 0.767,0.233 1.1,0.4 l 1.25,-7.95 -6.1,0.35 0.5,-11.949 c -0.533,0.5 -1.117,0.85 -1.75,1.05 -2.433,10.233 -6.933,9.883 -13.5,-1.05 -0.2,-0.301 -0.383,-0.617 -0.55,-0.95 -5.733,9.3 -12.683,10.333 -20.85,3.1 -0.433,-0.399 -0.833,-0.85 -1.2,-1.35 0.066,-0.467 0.1,-0.934 0.1,-1.4 0,-2.3 -0.667,-3.95 -2,-4.95 0.1,2.367 0.733,4.483 1.9,6.351 -0.333,0.6 -0.717,1.133 -1.15,1.6 -8.033,8.467 -17.583,9.117 -28.65,1.95 1.833,-2 2.083,-3.767 0.75,-5.3 -0.1,-0.101 -0.25,-0.15 -0.45,-0.15 -0.9,1.134 -1.7,2.467 -2.4,4 0.467,0.5 1.167,0.983 2.1,1.45 -5.133,6.267 -11.533,10.95 -19.2,14.05 -1.1,0.4 -2.184,0.851 -3.25,1.351 l -4.15,-1.2 c 0.333,-0.533 0.5,-1.084 0.5,-1.65 0,-1.333 -0.583,-2.6 -1.75,-3.8 l 1.25,5.45 c -0.5,0.467 -1.033,0.85 -1.6,1.149 -6.333,3.5 -13.017,4.233 -20.05,2.2 l -1.1,-4.2 c 0.7,-0.633 1.917,-1.366 3.65,-2.199 l -11.35,-1.25 -4.05,1.35 -4.1,3.6 2.8,1.75 c 3.9,-2.699 6.833,-4.05 8.8,-4.05 1.934,0 3.35,0.267 4.25,0.8 -0.2,0.233 -0.333,0.467 -0.4,0.7 -0.533,1.9 -0.033,3.066 1.5,3.5 -4.2,6.434 -10.15,11.25 -17.85,14.45 -0.333,0.134 -0.649,0.316 -0.95,0.55 h -7.05 l -6.149,14.3 c -3.367,0.534 -6,1.767 -7.9,3.7 l 7.25,-2.399 c 0.167,-0.334 0.384,-0.767 0.65,-1.301 0.533,-0.1 1.1,-0.166 1.699,-0.199 l 6.601,0.649 3.85,7.101 c -4.166,14.966 -12.1,18.05 -23.8,9.25 -0.066,-0.101 -0.116,-0.217 -0.15,-0.351 -0.366,-4.833 0.934,-9.083 3.9,-12.75 l -8.45,-0.5 c -0.066,0.2 -0.133,0.4 -0.2,0.601 -0.199,1.166 -0.55,2 -1.05,2.5 l -10.399,13 -1,-9.95 -2.551,-1.15 1.7,12.2 0.9,-0.35 -0.051,4.65 c 2,-0.934 3.483,-1.533 4.449,-1.8 l 4.25,-4.95 5.45,-0.25 v 14.351 l -2.45,5.6 3.75,2.5 c 1.801,-17.3 9.417,-20.267 22.851,-8.9 -2.134,-15.8 4.483,-22.166 19.85,-19.1 0.134,3 1.483,5.6 4.05,7.8 0.9,0.733 1.85,1.367 2.85,1.9 -1,-4.733 -3.3,-7.967 -6.9,-9.7 1.034,-5.767 4.567,-9.634 10.6,-11.6 3.167,-1.101 6.284,-1.15 9.35,-0.15 12.7,4.134 13.316,11.333 1.85,21.6 0.433,0.434 0.85,0.884 1.25,1.351 6.133,7.733 4.35,13.5 -5.35,17.3 -1.7,-0.033 -3.633,-0.083 -5.8,-0.15 -0.5,0.367 -0.983,0.767 -1.45,1.2 2.667,-0.033 5.083,-0.383 7.25,-1.05 3.5,0.1 5.95,0.217 7.35,0.35 5.3,0.467 8.483,1.45 9.55,2.95 l -6.6,7.75 v 1.8 l -4.55,2.825 -2.275,1.4 6.825,-2.02 v 2 h 7 c -2.267,-1.333 -4.6,-2 -7,-2 v -2.2 l 7,-8.3 -0.4,-1.25 2.5,-1.85 c -7.833,-5.167 -10.15,-11.884 -6.95,-20.15 0.267,-0.7 0.583,-1.366 0.95,-2 6.467,-0.467 12.133,1.233 17,5.101 2.267,1.833 3.867,4.166 4.8,7 l 16.05,-12.15 c -0.1,-0.033 -0.2,-0.1 -0.3,-0.2 l -12.25,5.8 -5.35,-4.199 c 5.1,-15.301 14.566,-21.517 28.4,-18.65 l 0.3,5.3 -4.25,4.851 c 1.333,2.466 1.233,4.833 -0.3,7.1 -0.1,0.17 -0.217,0.3 -0.35,0.4 z M 82.6,86.25 c 2.333,0.601 3.75,2.184 4.25,4.75 0.066,0.3 0.117,0.634 0.15,1 l 7.75,-2 -8,-1.95 -5.3,-10.5 c -0.133,0.601 -0.317,1.134 -0.55,1.601 1.267,1.399 1.9,3.184 1.9,5.35 0,0.666 -0.067,1.249 -0.2,1.749 z M 72.1,89.2 c -0.233,0.3 -0.417,0.634 -0.55,1 l -0.4,5.9 c 0.333,1.133 0.867,2.483 1.6,4.05 0.7,-1.7 1.05,-3.584 1.05,-5.65 0,-2.467 -0.567,-4.233 -1.7,-5.3 z m -27.65,2.651 2,2.75 2.35,0.949 1.9,-5.649 c 3.8,-2.667 8.216,-3.617 13.25,-2.851 h 0.55 l 1.55,-1.1 -9.25,-3.9 V 82 c 0,-1.399 -0.733,-2.434 -2.2,-3.1 0.6,-0.8 1.25,-1.483 1.95,-2.05 l -10.7,-0.95 0.8,1.6 1.1,0.5 -0.95,-0.1 0.55,0.1 h 0.4 l 6.85,0.9 c -0.267,0.333 -0.533,0.7 -0.8,1.1 0.833,0.7 1.833,1.384 3,2.05 l -0.05,2 -12.3,7.801 z M 72.65,88.5 c 0.5,0.2 0.883,0.351 1.15,0.45 3.6,1.167 6.35,0.566 8.25,-1.8 0.233,-0.267 0.417,-0.566 0.55,-0.9 C 81.9,86.084 81.133,86 80.3,86 c -3.533,0 -6.083,0.834 -7.65,2.5 z M 63.85,75 56.55,76.851 63.8,76 63.85,75 z m -48.75,130.9 7.6,-6.8 -8,5.699 0.4,1.1 z m 7.6,-6.8 c 0.566,-0.4 1.133,-0.784 1.7,-1.15 -1.033,-0.233 -1.9,-1.233 -2.6,-3 -0.633,-1.6 -0.966,-3.3 -1,-5.1 l -4.4,5.35 6.3,3.9 z M 36.65,192 H 33.8 c -1.733,0.834 -4.866,2.816 -9.4,5.95 0.133,0.033 0.267,0.05 0.4,0.05 3.567,0 7.516,-2 11.85,-6 z m -58.2,1.9 c -0.733,-2.033 -2.583,-3.967 -5.55,-5.8 -1.533,-0.967 -2.883,-1.7 -4.05,-2.2 h -0.7 c 0.534,1.899 1.75,3.6 3.65,5.1 2.067,1.67 4.283,2.63 6.65,2.9 z m -10.3,-8 c -0.033,-0.101 -0.066,-0.217 -0.1,-0.351 l -0.15,-3.3 -4.15,4.15 c 1.367,-0.27 2.833,-0.43 4.4,-0.5 z m -49,6.2 c 1.1,-0.567 2.199,-1.434 3.3,-2.601 -0.9,0 -1.667,0.25 -2.3,0.75 -0.667,0.5 -1,1.12 -1,1.85 z m 21.5,8.85 c 2.433,-0.1 4.633,-0.717 6.6,-1.85 l 9.8,10.5 4.95,-2.2 c -0.533,-0.134 -1.066,-0.283 -1.6,-0.45 -6.8,-1.333 -9.85,-5.033 -9.15,-11.1 l -3.8,3.149 c -0.066,0.033 -0.134,0.066 -0.2,0.101 -0.033,-0.034 -0.066,-0.067 -0.1,-0.101 l -6.5,1.95 -5.351,-0.85 c 0.634,0.699 1.217,1.333 1.75,1.899 0.134,0 0.267,-0.017 0.4,-0.05 1.235,-0.07 2.301,-0.4 3.201,-1 z m 70.75,-30 C 0.033,168.28 -1.25,162.97 7.55,155 c 1.5,-1.399 3.45,-1.733 5.85,-1 13.167,3.7 14.25,9.101 3.25,16.2 l -5.25,0.75 z m -32.6,24.55 -5,7.5 0.4,1.9 c 0.533,-0.634 1.066,-1.267 1.6,-1.9 1.867,-2.17 2.867,-4.67 3,-7.5 z m -21.75,14.1 c -3.233,1.699 -4.967,3.5 -5.2,5.399 h 6.95 c 0.1,-1.57 -0.484,-3.37 -1.75,-5.4 z m 19.4,-34.25 c -1.667,-0.567 -3.233,-1.584 -4.7,-3.051 -0.233,2 -0.733,3.917 -1.5,5.75 l 6.2,-2.7 z m 2.2,-0.3 c 0.934,0.4 1.934,0.7 3,0.9 l 5,-0.05 -8,-0.85 z m -3.95,-26.9 c -0.067,0.399 -0.167,0.783 -0.3,1.149 -3.867,12.233 -11.066,15.75 -21.6,10.551 -0.166,-2.601 -0.85,-4.551 -2.05,-5.851 -0.5,-0.533 -1.1,-0.95 -1.8,-1.25 0.1,-11.399 6.333,-15.934 18.7,-13.6 0.467,0.066 0.934,0.133 1.4,0.2 l 5.65,8.8 c 0,-2.434 -0.55,-4.517 -1.65,-6.25 -1.1,-1.7 -2.433,-2.55 -4,-2.55 5.667,-9.5 14.05,-12.684 25.15,-9.551 1.566,0.467 2.483,1.7 2.75,3.7 l -0.45,11 c -4.033,5.4 -9.6,7.9 -16.7,7.5 v -1 l -5.1,-2.85 z M -49,123.6 l -6.6,7.05 2.399,7 V 132 l 5.3,-4.95 L -49,123.6 z M 30.45,94.601 c 0.533,0.166 1.116,0.283 1.75,0.35 0.2,-0.233 0.433,-0.467 0.7,-0.7 -0.867,0.1 -1.683,0.216 -2.45,0.35 z m -105.75,58.349 0.85,-8.3 -1.35,10.8 c 0.133,-0.73 0.3,-1.57 0.5,-2.5 z M -5.4,86.851 C -5.566,86.316 -5.816,85.7 -6.15,85 c -0.333,0.733 -0.684,1.45 -1.05,2.15 -3.1,5.833 -7.966,9.35 -14.6,10.55 2.366,1.366 4.4,2.467 6.1,3.3 l 3.6,1.5 -3.95,8.101 2.75,1.55 h 0.15 c 2.466,-0.467 4.533,0.217 6.2,2.05 0.767,-3.533 3.417,-6.75 7.95,-9.65 0.1,-0.066 0.217,-0.133 0.35,-0.199 l 0.45,-6.35 -9.1,-0.35 c -0.134,-0.101 -0.217,-0.233 -0.25,-0.4 -1.033,-3.733 -0.317,-7.2 2.15,-10.399 z M 62.3,145.9 c -0.333,0.533 -0.683,1.033 -1.05,1.5 -5.1,6.467 -10.933,7.283 -17.5,2.45 l 1.95,-8.25 3.6,-2.851 3.15,-8.3 c 4.9,-1.4 9.117,-0.467 12.65,2.8 0.667,0.634 0.883,1.45 0.65,2.45 4.6,4.566 3.783,7.95 -2.45,10.15 -0.3,0.1 -0.633,0.12 -1,0.05 z m -5.675,-36.4 c 1.15,0 2.125,0.75 2.925,2.25 0.8,1.533 1.2,3.384 1.2,5.55 0.033,0.134 0.067,0.267 0.1,0.4 0.633,2.5 0.05,4.85 -1.75,7.05 l -22.6,3.2 -0.75,-0.7 c 2.033,-2.133 3.05,-4.883 3.05,-8.25 0,-1.467 -0.35,-2.75 -1.05,-3.85 -1.967,2.8 -2.95,6.25 -2.95,10.35 0,0.533 0.317,1.117 0.95,1.75 -3.9,3.634 -8.434,5.017 -13.6,4.15 -0.466,0 -0.917,-0.117 -1.35,-0.351 l -1.55,6.801 c 10.633,-5.967 19.333,-4.967 26.1,3 0.167,0.199 0.283,0.449 0.35,0.75 -1.934,1.866 -2.9,3.666 -2.9,5.399 0,1.101 0.317,2.05 0.95,2.851 -14.533,8.933 -22.767,6.199 -24.7,-8.2 -0.133,-0.934 -0.183,-2 -0.15,-3.2 -0.267,0.434 -0.533,0.85 -0.8,1.25 -7.4,11.767 -14.6,13.366 -21.6,4.8 0.867,-1.7 1.3,-3.7 1.3,-6 0,-0.133 -0.283,-1.8 -0.85,-5 4.433,-8 11.066,-10.35 19.9,-7.05 -0.034,-0.467 -0.05,-0.934 -0.05,-1.4 0.5,-13.666 7.483,-16.966 20.95,-9.899 8.467,-7.4 14.758,-9.28 18.875,-5.65 z"
   id="path27"
   inkscape:connector-curvature="0"
   style="fill:#675e19" />
			<path
   d="m -37.425,260.62 0.725,15.18 11.15,-19.875 c 0.2,-1.75 0.292,-3.508 0.275,-5.274 l -0.075,-0.2 c -1.6,-0.167 -3.183,-0.366 -4.75,-0.6 -1.8,3.93 -4.242,7.53 -7.325,10.77 z m -6.45,-14.17 -6.225,13.675 -0.45,13.075 c 5,-5.366 8.383,-11.65 10.15,-18.85 l 1.275,0.3 -0.45,-6.875 c -1.417,-0.42 -2.85,-0.86 -4.3,-1.33 z"
   id="path29"
   inkscape:connector-curvature="0"
   style="fill:#766a44" />
			<path
   d="m -84.4,106.1 c -3.399,1.199 -5.017,1.966 -4.85,2.3 2.233,0.733 6,3.108 11.3,7.125 0.134,-0.117 0.267,-0.242 0.4,-0.375 l -6.85,-9.04 z M 80.3,60.7 c -0.7,-0.066 -1.283,-0.15 -1.75,-0.25 l 2,1.55 -0.25,-1.3 z"
   id="path31"
   inkscape:connector-curvature="0"
   style="fill:#8b7b59" />
		</g>
	</g>
</symbol>
<symbol
   id="item_x5F_durian"
   viewBox="-25.785 0 51.562 48.408"
   transform="translate(0,676.39631)">
	<g
   id="Layer_1_3_">
			<use
   xlink:href="#duriaan"
   transform="matrix(0.1714,0,0,0.1714,0,-115.93402)"
   height="282.45001"
   width="300.85001"
   x="-150.45"
   id="use35"
   y="0" />
	</g>
</symbol>
<use
   xlink:href="#item_x5F_durian"
   transform="matrix(15.427908,-4.1337018,-4.1337018,-15.427908,3324.3176,11186.484)"
   height="48.408001"
   width="51.562"
   x="-25.785"
   id="use37"
   y="0" />
</svg>